M48
; DRILL file {KiCad (5.1.10-1-10_14)} date Wednesday, September 08, 2021 at 02:02:28 PM
; FORMAT={-:-/ absolute / inch / decimal}
; #@! TF.CreationDate,2021-09-08T14:02:28-07:00
; #@! TF.GenerationSoftware,Kicad,Pcbnew,(5.1.10-1-10_14)
; #@! TF.FileFunction,Plated,1,2,PTH
FMAT,2
INCH
T1C0.0394
T2C0.0984
%
G90
G05
T1
X6.1719Y-3.6719
X6.1719Y-3.7719
X6.1719Y-3.8719
X6.1719Y-3.9719
X6.1719Y-4.0719
X6.3549Y-3.6719
X6.3549Y-3.7719
X6.3549Y-3.8719
X6.3549Y-3.9719
X6.3549Y-4.0719
X6.538Y-3.6719
X6.538Y-3.7719
X6.538Y-3.8719
X6.538Y-3.9719
X6.538Y-4.0719
X6.7211Y-3.6719
X6.7211Y-3.7719
X6.7211Y-3.8719
X6.7211Y-3.9719
X6.7211Y-4.0719
X6.9041Y-3.6719
X6.9041Y-3.7719
X6.9041Y-3.8719
X6.9041Y-3.9719
X6.9041Y-4.0719
T2
X5.95Y-3.7
X5.95Y-4.05
X7.1Y-3.7
X7.1Y-4.05
T0
M30
