%TF.GenerationSoftware,KiCad,Pcbnew,(5.1.10-1-10_14)*%
%TF.CreationDate,2021-09-08T14:02:43-07:00*%
%TF.ProjectId,i2c_header_x5,6932635f-6865-4616-9465-725f78352e6b,rev?*%
%TF.SameCoordinates,Original*%
%TF.FileFunction,Legend,Top*%
%TF.FilePolarity,Positive*%
%FSLAX46Y46*%
G04 Gerber Fmt 4.6, Leading zero omitted, Abs format (unit mm)*
G04 Created by KiCad (PCBNEW (5.1.10-1-10_14)) date 2021-09-08 14:02:43*
%MOMM*%
%LPD*%
G01*
G04 APERTURE LIST*
%ADD10C,0.120000*%
%ADD11C,0.150000*%
G04 APERTURE END LIST*
D10*
%TO.C,SCL*%
X169385001Y-91935001D02*
X170715001Y-91935001D01*
X169385001Y-93265001D02*
X169385001Y-91935001D01*
X169385001Y-94535001D02*
X172045001Y-94535001D01*
X172045001Y-94535001D02*
X172045001Y-104755001D01*
X169385001Y-94535001D02*
X169385001Y-104755001D01*
X169385001Y-104755001D02*
X172045001Y-104755001D01*
%TO.C,SDA*%
X174035001Y-104755001D02*
X176695001Y-104755001D01*
X174035001Y-94535001D02*
X174035001Y-104755001D01*
X176695001Y-94535001D02*
X176695001Y-104755001D01*
X174035001Y-94535001D02*
X176695001Y-94535001D01*
X174035001Y-93265001D02*
X174035001Y-91935001D01*
X174035001Y-91935001D02*
X175365001Y-91935001D01*
%TO.C,3V3*%
X155435001Y-104755001D02*
X158095001Y-104755001D01*
X155435001Y-94535001D02*
X155435001Y-104755001D01*
X158095001Y-94535001D02*
X158095001Y-104755001D01*
X155435001Y-94535001D02*
X158095001Y-94535001D01*
X155435001Y-93265001D02*
X155435001Y-91935001D01*
X155435001Y-91935001D02*
X156765001Y-91935001D01*
%TO.C,5V*%
X160085001Y-91935001D02*
X161415001Y-91935001D01*
X160085001Y-93265001D02*
X160085001Y-91935001D01*
X160085001Y-94535001D02*
X162745001Y-94535001D01*
X162745001Y-94535001D02*
X162745001Y-104755001D01*
X160085001Y-94535001D02*
X160085001Y-104755001D01*
X160085001Y-104755001D02*
X162745001Y-104755001D01*
%TO.C,GND*%
X164735001Y-91935001D02*
X166065001Y-91935001D01*
X164735001Y-93265001D02*
X164735001Y-91935001D01*
X164735001Y-94535001D02*
X167395001Y-94535001D01*
X167395001Y-94535001D02*
X167395001Y-104755001D01*
X164735001Y-94535001D02*
X164735001Y-104755001D01*
X164735001Y-104755001D02*
X167395001Y-104755001D01*
%TO.C,SCL*%
D11*
X169524524Y-91339762D02*
X169667381Y-91387381D01*
X169905477Y-91387381D01*
X170000715Y-91339762D01*
X170048334Y-91292143D01*
X170095953Y-91196905D01*
X170095953Y-91101667D01*
X170048334Y-91006429D01*
X170000715Y-90958810D01*
X169905477Y-90911191D01*
X169715001Y-90863572D01*
X169619762Y-90815953D01*
X169572143Y-90768334D01*
X169524524Y-90673096D01*
X169524524Y-90577858D01*
X169572143Y-90482620D01*
X169619762Y-90435001D01*
X169715001Y-90387381D01*
X169953096Y-90387381D01*
X170095953Y-90435001D01*
X171095953Y-91292143D02*
X171048334Y-91339762D01*
X170905477Y-91387381D01*
X170810239Y-91387381D01*
X170667381Y-91339762D01*
X170572143Y-91244524D01*
X170524524Y-91149286D01*
X170476905Y-90958810D01*
X170476905Y-90815953D01*
X170524524Y-90625477D01*
X170572143Y-90530239D01*
X170667381Y-90435001D01*
X170810239Y-90387381D01*
X170905477Y-90387381D01*
X171048334Y-90435001D01*
X171095953Y-90482620D01*
X172000715Y-91387381D02*
X171524524Y-91387381D01*
X171524524Y-90387381D01*
%TO.C,SDA*%
X174150715Y-91339762D02*
X174293572Y-91387381D01*
X174531667Y-91387381D01*
X174626905Y-91339762D01*
X174674524Y-91292143D01*
X174722143Y-91196905D01*
X174722143Y-91101667D01*
X174674524Y-91006429D01*
X174626905Y-90958810D01*
X174531667Y-90911191D01*
X174341191Y-90863572D01*
X174245953Y-90815953D01*
X174198334Y-90768334D01*
X174150715Y-90673096D01*
X174150715Y-90577858D01*
X174198334Y-90482620D01*
X174245953Y-90435001D01*
X174341191Y-90387381D01*
X174579286Y-90387381D01*
X174722143Y-90435001D01*
X175150715Y-91387381D02*
X175150715Y-90387381D01*
X175388810Y-90387381D01*
X175531667Y-90435001D01*
X175626905Y-90530239D01*
X175674524Y-90625477D01*
X175722143Y-90815953D01*
X175722143Y-90958810D01*
X175674524Y-91149286D01*
X175626905Y-91244524D01*
X175531667Y-91339762D01*
X175388810Y-91387381D01*
X175150715Y-91387381D01*
X176103096Y-91101667D02*
X176579286Y-91101667D01*
X176007858Y-91387381D02*
X176341191Y-90387381D01*
X176674524Y-91387381D01*
%TO.C,3V3*%
X155526905Y-90387381D02*
X156145953Y-90387381D01*
X155812620Y-90768334D01*
X155955477Y-90768334D01*
X156050715Y-90815953D01*
X156098334Y-90863572D01*
X156145953Y-90958810D01*
X156145953Y-91196905D01*
X156098334Y-91292143D01*
X156050715Y-91339762D01*
X155955477Y-91387381D01*
X155669762Y-91387381D01*
X155574524Y-91339762D01*
X155526905Y-91292143D01*
X156431667Y-90387381D02*
X156765001Y-91387381D01*
X157098334Y-90387381D01*
X157336429Y-90387381D02*
X157955477Y-90387381D01*
X157622143Y-90768334D01*
X157765001Y-90768334D01*
X157860239Y-90815953D01*
X157907858Y-90863572D01*
X157955477Y-90958810D01*
X157955477Y-91196905D01*
X157907858Y-91292143D01*
X157860239Y-91339762D01*
X157765001Y-91387381D01*
X157479286Y-91387381D01*
X157384048Y-91339762D01*
X157336429Y-91292143D01*
%TO.C,5V*%
X161224524Y-90387381D02*
X160748334Y-90387381D01*
X160700715Y-90863572D01*
X160748334Y-90815953D01*
X160843572Y-90768334D01*
X161081667Y-90768334D01*
X161176905Y-90815953D01*
X161224524Y-90863572D01*
X161272143Y-90958810D01*
X161272143Y-91196905D01*
X161224524Y-91292143D01*
X161176905Y-91339762D01*
X161081667Y-91387381D01*
X160843572Y-91387381D01*
X160748334Y-91339762D01*
X160700715Y-91292143D01*
X161557858Y-90387381D02*
X161891191Y-91387381D01*
X162224524Y-90387381D01*
%TO.C,GND*%
X165303096Y-90435001D02*
X165207858Y-90387381D01*
X165065001Y-90387381D01*
X164922143Y-90435001D01*
X164826905Y-90530239D01*
X164779286Y-90625477D01*
X164731667Y-90815953D01*
X164731667Y-90958810D01*
X164779286Y-91149286D01*
X164826905Y-91244524D01*
X164922143Y-91339762D01*
X165065001Y-91387381D01*
X165160239Y-91387381D01*
X165303096Y-91339762D01*
X165350715Y-91292143D01*
X165350715Y-90958810D01*
X165160239Y-90958810D01*
X165779286Y-91387381D02*
X165779286Y-90387381D01*
X166350715Y-91387381D01*
X166350715Y-90387381D01*
X166826905Y-91387381D02*
X166826905Y-90387381D01*
X167065001Y-90387381D01*
X167207858Y-90435001D01*
X167303096Y-90530239D01*
X167350715Y-90625477D01*
X167398334Y-90815953D01*
X167398334Y-90958810D01*
X167350715Y-91149286D01*
X167303096Y-91244524D01*
X167207858Y-91339762D01*
X167065001Y-91387381D01*
X166826905Y-91387381D01*
%TD*%
M02*
