M48
; DRILL file {KiCad (5.1.12-1-10_14)} date Wednesday, December 01, 2021 at 03:29:39 PM
; FORMAT={-:-/ absolute / inch / decimal}
; #@! TF.CreationDate,2021-12-01T15:29:39-08:00
; #@! TF.GenerationSoftware,Kicad,Pcbnew,(5.1.12-1-10_14)
; #@! TF.FileFunction,Plated,1,2,PTH
FMAT,2
INCH
T1C0.0394
T2C0.0984
%
G90
G05
T1
X6.15Y-3.6719
X6.15Y-3.7719
X6.15Y-3.8719
X6.15Y-3.9719
X6.15Y-4.0719
X6.3Y-3.6719
X6.3Y-3.7719
X6.3Y-3.8719
X6.3Y-3.9719
X6.3Y-4.0719
X6.526Y-3.669
X6.526Y-3.769
X6.526Y-3.869
X6.526Y-3.969
X6.526Y-4.069
X6.75Y-3.6719
X6.75Y-3.7719
X6.75Y-3.8719
X6.75Y-3.9719
X6.75Y-4.0719
X6.9Y-3.675
X6.9Y-3.775
X6.9Y-3.875
X6.9Y-3.975
X6.9Y-4.075
T2
X5.95Y-3.7
X5.95Y-4.05
X7.1Y-3.7
X7.1Y-4.05
T0
M30
