%TF.GenerationSoftware,KiCad,Pcbnew,(5.1.12-1-10_14)*%
%TF.CreationDate,2021-12-01T15:33:27-08:00*%
%TF.ProjectId,i2c_header_x5,6932635f-6865-4616-9465-725f78352e6b,rev?*%
%TF.SameCoordinates,Original*%
%TF.FileFunction,Legend,Top*%
%TF.FilePolarity,Positive*%
%FSLAX46Y46*%
G04 Gerber Fmt 4.6, Leading zero omitted, Abs format (unit mm)*
G04 Created by KiCad (PCBNEW (5.1.12-1-10_14)) date 2021-12-01 15:33:27*
%MOMM*%
%LPD*%
G01*
G04 APERTURE LIST*
%ADD10C,0.010000*%
%ADD11C,0.120000*%
%ADD12C,0.150000*%
G04 APERTURE END LIST*
D10*
%TO.C,REF\u002A\u002A*%
G36*
X376964Y2709982D02*
G01*
X433812Y2408430D01*
X853338Y2235488D01*
X1104984Y2406605D01*
X1175458Y2454250D01*
X1239163Y2496790D01*
X1293126Y2532285D01*
X1334373Y2558790D01*
X1359934Y2574364D01*
X1366895Y2577722D01*
X1379435Y2569086D01*
X1406231Y2545208D01*
X1444280Y2509141D01*
X1490579Y2463933D01*
X1542123Y2412636D01*
X1595909Y2358299D01*
X1648935Y2303972D01*
X1698195Y2252705D01*
X1740687Y2207549D01*
X1773407Y2171554D01*
X1793351Y2147770D01*
X1798119Y2139810D01*
X1791257Y2125135D01*
X1772020Y2092986D01*
X1742430Y2046508D01*
X1704510Y1988844D01*
X1660282Y1923140D01*
X1634654Y1885664D01*
X1587941Y1817232D01*
X1546432Y1755480D01*
X1512140Y1703481D01*
X1487080Y1664308D01*
X1473264Y1641035D01*
X1471188Y1636145D01*
X1475895Y1622245D01*
X1488723Y1589850D01*
X1507738Y1543515D01*
X1531003Y1487794D01*
X1556584Y1427242D01*
X1582545Y1366414D01*
X1606950Y1309864D01*
X1627863Y1262148D01*
X1643349Y1227819D01*
X1651472Y1211432D01*
X1651952Y1210788D01*
X1664707Y1207659D01*
X1698677Y1200679D01*
X1750340Y1190533D01*
X1816176Y1177908D01*
X1892664Y1163491D01*
X1937290Y1155177D01*
X2019021Y1139616D01*
X2092843Y1124808D01*
X2155021Y1111564D01*
X2201822Y1100695D01*
X2229509Y1093011D01*
X2235074Y1090573D01*
X2240526Y1074070D01*
X2244924Y1036800D01*
X2248272Y983120D01*
X2250574Y917388D01*
X2251832Y843963D01*
X2252048Y767204D01*
X2251227Y691468D01*
X2249371Y621114D01*
X2246482Y560500D01*
X2242565Y513984D01*
X2237622Y485925D01*
X2234657Y480084D01*
X2216934Y473083D01*
X2179381Y463073D01*
X2126964Y451231D01*
X2064652Y438733D01*
X2042900Y434690D01*
X1938024Y415480D01*
X1855180Y400009D01*
X1791630Y387663D01*
X1744637Y377827D01*
X1711463Y369886D01*
X1689371Y363224D01*
X1675624Y357227D01*
X1667484Y351281D01*
X1666345Y350106D01*
X1654977Y331174D01*
X1637635Y294331D01*
X1616050Y244087D01*
X1591954Y184954D01*
X1567079Y121444D01*
X1543157Y58068D01*
X1521919Y-662D01*
X1505097Y-50235D01*
X1494422Y-86139D01*
X1491627Y-103862D01*
X1491860Y-104483D01*
X1501331Y-118970D01*
X1522818Y-150844D01*
X1554063Y-196789D01*
X1592807Y-253485D01*
X1636793Y-317617D01*
X1649319Y-335842D01*
X1693984Y-401914D01*
X1733288Y-462200D01*
X1765088Y-513235D01*
X1787245Y-551560D01*
X1797617Y-573711D01*
X1798119Y-576432D01*
X1789405Y-590736D01*
X1765325Y-619072D01*
X1728976Y-658396D01*
X1683453Y-705661D01*
X1631852Y-757823D01*
X1577267Y-811835D01*
X1522794Y-864653D01*
X1471529Y-913231D01*
X1426567Y-954523D01*
X1391004Y-985485D01*
X1367935Y-1003070D01*
X1361554Y-1005941D01*
X1346699Y-999178D01*
X1316286Y-980939D01*
X1275268Y-954297D01*
X1243709Y-932852D01*
X1186525Y-893503D01*
X1118806Y-847171D01*
X1050880Y-800913D01*
X1014361Y-776155D01*
X890752Y-692547D01*
X786991Y-748650D01*
X739720Y-773228D01*
X699523Y-792331D01*
X672326Y-803227D01*
X665402Y-804743D01*
X657077Y-793549D01*
X640654Y-761917D01*
X617357Y-712765D01*
X588414Y-649010D01*
X555050Y-573571D01*
X518491Y-489364D01*
X479964Y-399308D01*
X440694Y-306321D01*
X401908Y-213320D01*
X364830Y-123223D01*
X330689Y-38948D01*
X300708Y36587D01*
X276116Y100466D01*
X258136Y149769D01*
X247997Y181579D01*
X246366Y192504D01*
X259291Y206439D01*
X287589Y229060D01*
X325346Y255667D01*
X328515Y257772D01*
X426100Y335886D01*
X504786Y427018D01*
X563891Y528255D01*
X602732Y636682D01*
X620628Y749386D01*
X616897Y863452D01*
X590857Y975966D01*
X541825Y1084015D01*
X527400Y1107655D01*
X452369Y1203113D01*
X363730Y1279768D01*
X264549Y1337220D01*
X157895Y1375071D01*
X46836Y1392922D01*
X-65561Y1390375D01*
X-176227Y1367030D01*
X-282094Y1322490D01*
X-380095Y1256355D01*
X-410410Y1229513D01*
X-487562Y1145488D01*
X-543782Y1057034D01*
X-582347Y957885D01*
X-603826Y859697D01*
X-609128Y749303D01*
X-591448Y638360D01*
X-552581Y530619D01*
X-494323Y429831D01*
X-418469Y339744D01*
X-326817Y264108D01*
X-314772Y256136D01*
X-276611Y230026D01*
X-247601Y207405D01*
X-233732Y192961D01*
X-233531Y192504D01*
X-236508Y176879D01*
X-248311Y141418D01*
X-267714Y89038D01*
X-293488Y22655D01*
X-324409Y-54814D01*
X-359249Y-140450D01*
X-396783Y-231337D01*
X-435783Y-324559D01*
X-475023Y-417197D01*
X-513276Y-506335D01*
X-549317Y-589055D01*
X-581917Y-662441D01*
X-609852Y-723575D01*
X-631895Y-769541D01*
X-646818Y-797421D01*
X-652828Y-804743D01*
X-671191Y-799041D01*
X-705552Y-783749D01*
X-749984Y-761599D01*
X-774417Y-748650D01*
X-878178Y-692547D01*
X-1001787Y-776155D01*
X-1064886Y-818987D01*
X-1133970Y-866122D01*
X-1198707Y-910503D01*
X-1231134Y-932852D01*
X-1276741Y-963477D01*
X-1315360Y-987747D01*
X-1341952Y-1002587D01*
X-1350590Y-1005724D01*
X-1363161Y-997261D01*
X-1390984Y-973636D01*
X-1431361Y-937302D01*
X-1481595Y-890711D01*
X-1538988Y-836317D01*
X-1575286Y-801392D01*
X-1638790Y-738996D01*
X-1693673Y-683188D01*
X-1737714Y-636354D01*
X-1768695Y-600882D01*
X-1784398Y-579161D01*
X-1785905Y-574752D01*
X-1778914Y-557985D01*
X-1759594Y-524082D01*
X-1730091Y-476476D01*
X-1692545Y-418599D01*
X-1649100Y-353884D01*
X-1636745Y-335842D01*
X-1591727Y-270267D01*
X-1551340Y-211228D01*
X-1517840Y-162042D01*
X-1493486Y-126028D01*
X-1480536Y-106502D01*
X-1479285Y-104483D01*
X-1481156Y-88922D01*
X-1491087Y-54709D01*
X-1507347Y-6355D01*
X-1528205Y51629D01*
X-1551927Y114730D01*
X-1576784Y178437D01*
X-1601042Y238239D01*
X-1622971Y289624D01*
X-1640838Y328081D01*
X-1652913Y349098D01*
X-1653771Y350106D01*
X-1661154Y356112D01*
X-1673625Y362052D01*
X-1693920Y368540D01*
X-1724778Y376191D01*
X-1768934Y385620D01*
X-1829126Y397441D01*
X-1908093Y412271D01*
X-2008570Y430723D01*
X-2030325Y434690D01*
X-2094802Y447147D01*
X-2151011Y459334D01*
X-2193987Y470074D01*
X-2218760Y478191D01*
X-2222082Y480084D01*
X-2227556Y496862D01*
X-2232006Y534355D01*
X-2235428Y588206D01*
X-2237819Y654056D01*
X-2239177Y727547D01*
X-2239499Y804320D01*
X-2238781Y880017D01*
X-2237021Y950280D01*
X-2234216Y1010750D01*
X-2230362Y1057070D01*
X-2225457Y1084881D01*
X-2222500Y1090573D01*
X-2206037Y1096314D01*
X-2168551Y1105655D01*
X-2113775Y1117785D01*
X-2045445Y1131893D01*
X-1967294Y1147170D01*
X-1924716Y1155177D01*
X-1843929Y1170279D01*
X-1771887Y1183960D01*
X-1712111Y1195533D01*
X-1668121Y1204313D01*
X-1643439Y1209613D01*
X-1639377Y1210788D01*
X-1632511Y1224035D01*
X-1617998Y1255943D01*
X-1597771Y1301953D01*
X-1573766Y1357508D01*
X-1547918Y1418047D01*
X-1522160Y1479014D01*
X-1498427Y1535849D01*
X-1478654Y1583994D01*
X-1464776Y1618890D01*
X-1458726Y1635979D01*
X-1458614Y1636726D01*
X-1465472Y1650207D01*
X-1484698Y1681230D01*
X-1514272Y1726711D01*
X-1552173Y1783568D01*
X-1596380Y1848717D01*
X-1622079Y1886138D01*
X-1668907Y1954753D01*
X-1710499Y2017048D01*
X-1744825Y2069871D01*
X-1769857Y2110073D01*
X-1783565Y2134500D01*
X-1785544Y2139976D01*
X-1777034Y2152722D01*
X-1753507Y2179937D01*
X-1717968Y2218572D01*
X-1673423Y2265577D01*
X-1622877Y2317905D01*
X-1569336Y2372505D01*
X-1515805Y2426330D01*
X-1465289Y2476330D01*
X-1420794Y2519457D01*
X-1385325Y2552661D01*
X-1361887Y2572894D01*
X-1354046Y2577722D01*
X-1341280Y2570933D01*
X-1310744Y2551858D01*
X-1265410Y2522439D01*
X-1208244Y2484619D01*
X-1142216Y2440339D01*
X-1092410Y2406605D01*
X-840764Y2235488D01*
X-631001Y2321959D01*
X-421237Y2408430D01*
X-364389Y2709982D01*
X-307540Y3011534D01*
X320115Y3011534D01*
X376964Y2709982D01*
G37*
X376964Y2709982D02*
X433812Y2408430D01*
X853338Y2235488D01*
X1104984Y2406605D01*
X1175458Y2454250D01*
X1239163Y2496790D01*
X1293126Y2532285D01*
X1334373Y2558790D01*
X1359934Y2574364D01*
X1366895Y2577722D01*
X1379435Y2569086D01*
X1406231Y2545208D01*
X1444280Y2509141D01*
X1490579Y2463933D01*
X1542123Y2412636D01*
X1595909Y2358299D01*
X1648935Y2303972D01*
X1698195Y2252705D01*
X1740687Y2207549D01*
X1773407Y2171554D01*
X1793351Y2147770D01*
X1798119Y2139810D01*
X1791257Y2125135D01*
X1772020Y2092986D01*
X1742430Y2046508D01*
X1704510Y1988844D01*
X1660282Y1923140D01*
X1634654Y1885664D01*
X1587941Y1817232D01*
X1546432Y1755480D01*
X1512140Y1703481D01*
X1487080Y1664308D01*
X1473264Y1641035D01*
X1471188Y1636145D01*
X1475895Y1622245D01*
X1488723Y1589850D01*
X1507738Y1543515D01*
X1531003Y1487794D01*
X1556584Y1427242D01*
X1582545Y1366414D01*
X1606950Y1309864D01*
X1627863Y1262148D01*
X1643349Y1227819D01*
X1651472Y1211432D01*
X1651952Y1210788D01*
X1664707Y1207659D01*
X1698677Y1200679D01*
X1750340Y1190533D01*
X1816176Y1177908D01*
X1892664Y1163491D01*
X1937290Y1155177D01*
X2019021Y1139616D01*
X2092843Y1124808D01*
X2155021Y1111564D01*
X2201822Y1100695D01*
X2229509Y1093011D01*
X2235074Y1090573D01*
X2240526Y1074070D01*
X2244924Y1036800D01*
X2248272Y983120D01*
X2250574Y917388D01*
X2251832Y843963D01*
X2252048Y767204D01*
X2251227Y691468D01*
X2249371Y621114D01*
X2246482Y560500D01*
X2242565Y513984D01*
X2237622Y485925D01*
X2234657Y480084D01*
X2216934Y473083D01*
X2179381Y463073D01*
X2126964Y451231D01*
X2064652Y438733D01*
X2042900Y434690D01*
X1938024Y415480D01*
X1855180Y400009D01*
X1791630Y387663D01*
X1744637Y377827D01*
X1711463Y369886D01*
X1689371Y363224D01*
X1675624Y357227D01*
X1667484Y351281D01*
X1666345Y350106D01*
X1654977Y331174D01*
X1637635Y294331D01*
X1616050Y244087D01*
X1591954Y184954D01*
X1567079Y121444D01*
X1543157Y58068D01*
X1521919Y-662D01*
X1505097Y-50235D01*
X1494422Y-86139D01*
X1491627Y-103862D01*
X1491860Y-104483D01*
X1501331Y-118970D01*
X1522818Y-150844D01*
X1554063Y-196789D01*
X1592807Y-253485D01*
X1636793Y-317617D01*
X1649319Y-335842D01*
X1693984Y-401914D01*
X1733288Y-462200D01*
X1765088Y-513235D01*
X1787245Y-551560D01*
X1797617Y-573711D01*
X1798119Y-576432D01*
X1789405Y-590736D01*
X1765325Y-619072D01*
X1728976Y-658396D01*
X1683453Y-705661D01*
X1631852Y-757823D01*
X1577267Y-811835D01*
X1522794Y-864653D01*
X1471529Y-913231D01*
X1426567Y-954523D01*
X1391004Y-985485D01*
X1367935Y-1003070D01*
X1361554Y-1005941D01*
X1346699Y-999178D01*
X1316286Y-980939D01*
X1275268Y-954297D01*
X1243709Y-932852D01*
X1186525Y-893503D01*
X1118806Y-847171D01*
X1050880Y-800913D01*
X1014361Y-776155D01*
X890752Y-692547D01*
X786991Y-748650D01*
X739720Y-773228D01*
X699523Y-792331D01*
X672326Y-803227D01*
X665402Y-804743D01*
X657077Y-793549D01*
X640654Y-761917D01*
X617357Y-712765D01*
X588414Y-649010D01*
X555050Y-573571D01*
X518491Y-489364D01*
X479964Y-399308D01*
X440694Y-306321D01*
X401908Y-213320D01*
X364830Y-123223D01*
X330689Y-38948D01*
X300708Y36587D01*
X276116Y100466D01*
X258136Y149769D01*
X247997Y181579D01*
X246366Y192504D01*
X259291Y206439D01*
X287589Y229060D01*
X325346Y255667D01*
X328515Y257772D01*
X426100Y335886D01*
X504786Y427018D01*
X563891Y528255D01*
X602732Y636682D01*
X620628Y749386D01*
X616897Y863452D01*
X590857Y975966D01*
X541825Y1084015D01*
X527400Y1107655D01*
X452369Y1203113D01*
X363730Y1279768D01*
X264549Y1337220D01*
X157895Y1375071D01*
X46836Y1392922D01*
X-65561Y1390375D01*
X-176227Y1367030D01*
X-282094Y1322490D01*
X-380095Y1256355D01*
X-410410Y1229513D01*
X-487562Y1145488D01*
X-543782Y1057034D01*
X-582347Y957885D01*
X-603826Y859697D01*
X-609128Y749303D01*
X-591448Y638360D01*
X-552581Y530619D01*
X-494323Y429831D01*
X-418469Y339744D01*
X-326817Y264108D01*
X-314772Y256136D01*
X-276611Y230026D01*
X-247601Y207405D01*
X-233732Y192961D01*
X-233531Y192504D01*
X-236508Y176879D01*
X-248311Y141418D01*
X-267714Y89038D01*
X-293488Y22655D01*
X-324409Y-54814D01*
X-359249Y-140450D01*
X-396783Y-231337D01*
X-435783Y-324559D01*
X-475023Y-417197D01*
X-513276Y-506335D01*
X-549317Y-589055D01*
X-581917Y-662441D01*
X-609852Y-723575D01*
X-631895Y-769541D01*
X-646818Y-797421D01*
X-652828Y-804743D01*
X-671191Y-799041D01*
X-705552Y-783749D01*
X-749984Y-761599D01*
X-774417Y-748650D01*
X-878178Y-692547D01*
X-1001787Y-776155D01*
X-1064886Y-818987D01*
X-1133970Y-866122D01*
X-1198707Y-910503D01*
X-1231134Y-932852D01*
X-1276741Y-963477D01*
X-1315360Y-987747D01*
X-1341952Y-1002587D01*
X-1350590Y-1005724D01*
X-1363161Y-997261D01*
X-1390984Y-973636D01*
X-1431361Y-937302D01*
X-1481595Y-890711D01*
X-1538988Y-836317D01*
X-1575286Y-801392D01*
X-1638790Y-738996D01*
X-1693673Y-683188D01*
X-1737714Y-636354D01*
X-1768695Y-600882D01*
X-1784398Y-579161D01*
X-1785905Y-574752D01*
X-1778914Y-557985D01*
X-1759594Y-524082D01*
X-1730091Y-476476D01*
X-1692545Y-418599D01*
X-1649100Y-353884D01*
X-1636745Y-335842D01*
X-1591727Y-270267D01*
X-1551340Y-211228D01*
X-1517840Y-162042D01*
X-1493486Y-126028D01*
X-1480536Y-106502D01*
X-1479285Y-104483D01*
X-1481156Y-88922D01*
X-1491087Y-54709D01*
X-1507347Y-6355D01*
X-1528205Y51629D01*
X-1551927Y114730D01*
X-1576784Y178437D01*
X-1601042Y238239D01*
X-1622971Y289624D01*
X-1640838Y328081D01*
X-1652913Y349098D01*
X-1653771Y350106D01*
X-1661154Y356112D01*
X-1673625Y362052D01*
X-1693920Y368540D01*
X-1724778Y376191D01*
X-1768934Y385620D01*
X-1829126Y397441D01*
X-1908093Y412271D01*
X-2008570Y430723D01*
X-2030325Y434690D01*
X-2094802Y447147D01*
X-2151011Y459334D01*
X-2193987Y470074D01*
X-2218760Y478191D01*
X-2222082Y480084D01*
X-2227556Y496862D01*
X-2232006Y534355D01*
X-2235428Y588206D01*
X-2237819Y654056D01*
X-2239177Y727547D01*
X-2239499Y804320D01*
X-2238781Y880017D01*
X-2237021Y950280D01*
X-2234216Y1010750D01*
X-2230362Y1057070D01*
X-2225457Y1084881D01*
X-2222500Y1090573D01*
X-2206037Y1096314D01*
X-2168551Y1105655D01*
X-2113775Y1117785D01*
X-2045445Y1131893D01*
X-1967294Y1147170D01*
X-1924716Y1155177D01*
X-1843929Y1170279D01*
X-1771887Y1183960D01*
X-1712111Y1195533D01*
X-1668121Y1204313D01*
X-1643439Y1209613D01*
X-1639377Y1210788D01*
X-1632511Y1224035D01*
X-1617998Y1255943D01*
X-1597771Y1301953D01*
X-1573766Y1357508D01*
X-1547918Y1418047D01*
X-1522160Y1479014D01*
X-1498427Y1535849D01*
X-1478654Y1583994D01*
X-1464776Y1618890D01*
X-1458726Y1635979D01*
X-1458614Y1636726D01*
X-1465472Y1650207D01*
X-1484698Y1681230D01*
X-1514272Y1726711D01*
X-1552173Y1783568D01*
X-1596380Y1848717D01*
X-1622079Y1886138D01*
X-1668907Y1954753D01*
X-1710499Y2017048D01*
X-1744825Y2069871D01*
X-1769857Y2110073D01*
X-1783565Y2134500D01*
X-1785544Y2139976D01*
X-1777034Y2152722D01*
X-1753507Y2179937D01*
X-1717968Y2218572D01*
X-1673423Y2265577D01*
X-1622877Y2317905D01*
X-1569336Y2372505D01*
X-1515805Y2426330D01*
X-1465289Y2476330D01*
X-1420794Y2519457D01*
X-1385325Y2552661D01*
X-1361887Y2572894D01*
X-1354046Y2577722D01*
X-1341280Y2570933D01*
X-1310744Y2551858D01*
X-1265410Y2522439D01*
X-1208244Y2484619D01*
X-1142216Y2440339D01*
X-1092410Y2406605D01*
X-840764Y2235488D01*
X-631001Y2321959D01*
X-421237Y2408430D01*
X-364389Y2709982D01*
X-307540Y3011534D01*
X320115Y3011534D01*
X376964Y2709982D01*
G36*
X1799460Y-1458030D02*
G01*
X1842711Y-1471245D01*
X1870558Y-1487941D01*
X1879629Y-1501145D01*
X1877132Y-1516797D01*
X1860931Y-1541385D01*
X1847232Y-1558800D01*
X1818992Y-1590283D01*
X1797775Y-1603529D01*
X1779688Y-1602664D01*
X1726035Y-1589010D01*
X1686630Y-1589630D01*
X1654632Y-1605104D01*
X1643890Y-1614161D01*
X1609505Y-1646027D01*
X1609505Y-2062179D01*
X1471188Y-2062179D01*
X1471188Y-1458614D01*
X1540347Y-1458614D01*
X1581869Y-1460256D01*
X1603291Y-1466087D01*
X1609502Y-1477461D01*
X1609505Y-1477798D01*
X1612439Y-1489713D01*
X1625704Y-1488159D01*
X1644084Y-1479563D01*
X1682046Y-1463568D01*
X1712872Y-1453945D01*
X1752536Y-1451478D01*
X1799460Y-1458030D01*
G37*
X1799460Y-1458030D02*
X1842711Y-1471245D01*
X1870558Y-1487941D01*
X1879629Y-1501145D01*
X1877132Y-1516797D01*
X1860931Y-1541385D01*
X1847232Y-1558800D01*
X1818992Y-1590283D01*
X1797775Y-1603529D01*
X1779688Y-1602664D01*
X1726035Y-1589010D01*
X1686630Y-1589630D01*
X1654632Y-1605104D01*
X1643890Y-1614161D01*
X1609505Y-1646027D01*
X1609505Y-2062179D01*
X1471188Y-2062179D01*
X1471188Y-1458614D01*
X1540347Y-1458614D01*
X1581869Y-1460256D01*
X1603291Y-1466087D01*
X1609502Y-1477461D01*
X1609505Y-1477798D01*
X1612439Y-1489713D01*
X1625704Y-1488159D01*
X1644084Y-1479563D01*
X1682046Y-1463568D01*
X1712872Y-1453945D01*
X1752536Y-1451478D01*
X1799460Y-1458030D01*
G36*
X-754012Y-1469002D02*
G01*
X-722717Y-1483950D01*
X-692409Y-1505541D01*
X-669318Y-1530391D01*
X-652500Y-1562087D01*
X-641006Y-1604214D01*
X-633891Y-1660358D01*
X-630207Y-1734106D01*
X-629008Y-1829044D01*
X-628989Y-1838985D01*
X-628713Y-2062179D01*
X-767030Y-2062179D01*
X-767030Y-1856418D01*
X-767128Y-1780189D01*
X-767809Y-1724939D01*
X-769651Y-1686501D01*
X-773233Y-1660706D01*
X-779132Y-1643384D01*
X-787927Y-1630368D01*
X-800180Y-1617507D01*
X-843047Y-1589873D01*
X-889843Y-1584745D01*
X-934424Y-1602217D01*
X-949928Y-1615221D01*
X-961310Y-1627447D01*
X-969481Y-1640540D01*
X-974974Y-1658615D01*
X-978320Y-1685787D01*
X-980051Y-1726170D01*
X-980697Y-1783879D01*
X-980792Y-1854132D01*
X-980792Y-2062179D01*
X-1119109Y-2062179D01*
X-1119109Y-1458614D01*
X-1049950Y-1458614D01*
X-1008428Y-1460256D01*
X-987006Y-1466087D01*
X-980795Y-1477461D01*
X-980792Y-1477798D01*
X-977910Y-1488938D01*
X-965199Y-1487674D01*
X-939926Y-1475434D01*
X-882605Y-1457424D01*
X-817037Y-1455421D01*
X-754012Y-1469002D01*
G37*
X-754012Y-1469002D02*
X-722717Y-1483950D01*
X-692409Y-1505541D01*
X-669318Y-1530391D01*
X-652500Y-1562087D01*
X-641006Y-1604214D01*
X-633891Y-1660358D01*
X-630207Y-1734106D01*
X-629008Y-1829044D01*
X-628989Y-1838985D01*
X-628713Y-2062179D01*
X-767030Y-2062179D01*
X-767030Y-1856418D01*
X-767128Y-1780189D01*
X-767809Y-1724939D01*
X-769651Y-1686501D01*
X-773233Y-1660706D01*
X-779132Y-1643384D01*
X-787927Y-1630368D01*
X-800180Y-1617507D01*
X-843047Y-1589873D01*
X-889843Y-1584745D01*
X-934424Y-1602217D01*
X-949928Y-1615221D01*
X-961310Y-1627447D01*
X-969481Y-1640540D01*
X-974974Y-1658615D01*
X-978320Y-1685787D01*
X-980051Y-1726170D01*
X-980697Y-1783879D01*
X-980792Y-1854132D01*
X-980792Y-2062179D01*
X-1119109Y-2062179D01*
X-1119109Y-1458614D01*
X-1049950Y-1458614D01*
X-1008428Y-1460256D01*
X-987006Y-1466087D01*
X-980795Y-1477461D01*
X-980792Y-1477798D01*
X-977910Y-1488938D01*
X-965199Y-1487674D01*
X-939926Y-1475434D01*
X-882605Y-1457424D01*
X-817037Y-1455421D01*
X-754012Y-1469002D01*
G36*
X2677898Y-1456457D02*
G01*
X2710096Y-1464279D01*
X2771825Y-1492921D01*
X2824610Y-1536667D01*
X2861141Y-1589117D01*
X2866160Y-1600893D01*
X2873045Y-1631740D01*
X2877864Y-1677371D01*
X2879505Y-1723492D01*
X2879505Y-1810693D01*
X2697178Y-1810693D01*
X2621979Y-1810978D01*
X2569003Y-1812704D01*
X2535325Y-1817181D01*
X2518020Y-1825720D01*
X2514163Y-1839630D01*
X2520829Y-1860222D01*
X2532770Y-1884315D01*
X2566080Y-1924525D01*
X2612368Y-1944558D01*
X2668944Y-1943905D01*
X2733031Y-1922101D01*
X2788417Y-1895193D01*
X2834375Y-1931532D01*
X2880333Y-1967872D01*
X2837096Y-2007819D01*
X2779374Y-2045563D01*
X2708386Y-2068320D01*
X2632029Y-2074688D01*
X2558199Y-2063268D01*
X2546287Y-2059393D01*
X2481399Y-2025506D01*
X2433130Y-1974986D01*
X2400465Y-1906325D01*
X2382385Y-1818014D01*
X2382175Y-1816121D01*
X2380556Y-1719878D01*
X2387100Y-1685542D01*
X2514852Y-1685542D01*
X2526584Y-1690822D01*
X2558438Y-1694867D01*
X2605397Y-1697176D01*
X2635154Y-1697525D01*
X2690648Y-1697306D01*
X2725346Y-1695916D01*
X2743601Y-1692251D01*
X2749766Y-1685210D01*
X2748195Y-1673690D01*
X2746878Y-1669233D01*
X2724382Y-1627355D01*
X2689003Y-1593604D01*
X2657780Y-1578773D01*
X2616301Y-1579668D01*
X2574269Y-1598164D01*
X2539012Y-1628786D01*
X2517854Y-1666062D01*
X2514852Y-1685542D01*
X2387100Y-1685542D01*
X2396690Y-1635229D01*
X2428698Y-1564191D01*
X2474701Y-1508779D01*
X2532821Y-1471009D01*
X2601180Y-1452896D01*
X2677898Y-1456457D01*
G37*
X2677898Y-1456457D02*
X2710096Y-1464279D01*
X2771825Y-1492921D01*
X2824610Y-1536667D01*
X2861141Y-1589117D01*
X2866160Y-1600893D01*
X2873045Y-1631740D01*
X2877864Y-1677371D01*
X2879505Y-1723492D01*
X2879505Y-1810693D01*
X2697178Y-1810693D01*
X2621979Y-1810978D01*
X2569003Y-1812704D01*
X2535325Y-1817181D01*
X2518020Y-1825720D01*
X2514163Y-1839630D01*
X2520829Y-1860222D01*
X2532770Y-1884315D01*
X2566080Y-1924525D01*
X2612368Y-1944558D01*
X2668944Y-1943905D01*
X2733031Y-1922101D01*
X2788417Y-1895193D01*
X2834375Y-1931532D01*
X2880333Y-1967872D01*
X2837096Y-2007819D01*
X2779374Y-2045563D01*
X2708386Y-2068320D01*
X2632029Y-2074688D01*
X2558199Y-2063268D01*
X2546287Y-2059393D01*
X2481399Y-2025506D01*
X2433130Y-1974986D01*
X2400465Y-1906325D01*
X2382385Y-1818014D01*
X2382175Y-1816121D01*
X2380556Y-1719878D01*
X2387100Y-1685542D01*
X2514852Y-1685542D01*
X2526584Y-1690822D01*
X2558438Y-1694867D01*
X2605397Y-1697176D01*
X2635154Y-1697525D01*
X2690648Y-1697306D01*
X2725346Y-1695916D01*
X2743601Y-1692251D01*
X2749766Y-1685210D01*
X2748195Y-1673690D01*
X2746878Y-1669233D01*
X2724382Y-1627355D01*
X2689003Y-1593604D01*
X2657780Y-1578773D01*
X2616301Y-1579668D01*
X2574269Y-1598164D01*
X2539012Y-1628786D01*
X2517854Y-1666062D01*
X2514852Y-1685542D01*
X2387100Y-1685542D01*
X2396690Y-1635229D01*
X2428698Y-1564191D01*
X2474701Y-1508779D01*
X2532821Y-1471009D01*
X2601180Y-1452896D01*
X2677898Y-1456457D01*
G36*
X2217226Y-1463880D02*
G01*
X2290080Y-1494830D01*
X2313027Y-1509895D01*
X2342354Y-1533048D01*
X2360764Y-1551253D01*
X2363961Y-1557183D01*
X2354935Y-1570340D01*
X2331837Y-1592667D01*
X2313344Y-1608250D01*
X2262728Y-1648926D01*
X2222760Y-1615295D01*
X2191874Y-1593584D01*
X2161759Y-1586090D01*
X2127292Y-1587920D01*
X2072561Y-1601528D01*
X2034886Y-1629772D01*
X2011991Y-1675433D01*
X2001597Y-1741289D01*
X2001595Y-1741331D01*
X2002494Y-1814939D01*
X2016463Y-1868946D01*
X2044328Y-1905716D01*
X2063325Y-1918168D01*
X2113776Y-1933673D01*
X2167663Y-1933683D01*
X2214546Y-1918638D01*
X2225644Y-1911287D01*
X2253476Y-1892511D01*
X2275236Y-1889434D01*
X2298704Y-1903409D01*
X2324649Y-1928510D01*
X2365716Y-1970880D01*
X2320121Y-2008464D01*
X2249674Y-2050882D01*
X2170233Y-2071785D01*
X2087215Y-2070272D01*
X2032694Y-2056411D01*
X1968970Y-2022135D01*
X1918005Y-1968212D01*
X1894851Y-1930149D01*
X1876099Y-1875536D01*
X1866715Y-1806369D01*
X1866643Y-1731407D01*
X1875824Y-1659409D01*
X1894199Y-1599137D01*
X1897093Y-1592958D01*
X1939952Y-1532351D01*
X1997979Y-1488224D01*
X2066591Y-1461493D01*
X2141201Y-1453073D01*
X2217226Y-1463880D01*
G37*
X2217226Y-1463880D02*
X2290080Y-1494830D01*
X2313027Y-1509895D01*
X2342354Y-1533048D01*
X2360764Y-1551253D01*
X2363961Y-1557183D01*
X2354935Y-1570340D01*
X2331837Y-1592667D01*
X2313344Y-1608250D01*
X2262728Y-1648926D01*
X2222760Y-1615295D01*
X2191874Y-1593584D01*
X2161759Y-1586090D01*
X2127292Y-1587920D01*
X2072561Y-1601528D01*
X2034886Y-1629772D01*
X2011991Y-1675433D01*
X2001597Y-1741289D01*
X2001595Y-1741331D01*
X2002494Y-1814939D01*
X2016463Y-1868946D01*
X2044328Y-1905716D01*
X2063325Y-1918168D01*
X2113776Y-1933673D01*
X2167663Y-1933683D01*
X2214546Y-1918638D01*
X2225644Y-1911287D01*
X2253476Y-1892511D01*
X2275236Y-1889434D01*
X2298704Y-1903409D01*
X2324649Y-1928510D01*
X2365716Y-1970880D01*
X2320121Y-2008464D01*
X2249674Y-2050882D01*
X2170233Y-2071785D01*
X2087215Y-2070272D01*
X2032694Y-2056411D01*
X1968970Y-2022135D01*
X1918005Y-1968212D01*
X1894851Y-1930149D01*
X1876099Y-1875536D01*
X1866715Y-1806369D01*
X1866643Y-1731407D01*
X1875824Y-1659409D01*
X1894199Y-1599137D01*
X1897093Y-1592958D01*
X1939952Y-1532351D01*
X1997979Y-1488224D01*
X2066591Y-1461493D01*
X2141201Y-1453073D01*
X2217226Y-1463880D01*
G36*
X993367Y-1654342D02*
G01*
X994555Y-1746563D01*
X998897Y-1816610D01*
X1007558Y-1867381D01*
X1021704Y-1901772D01*
X1042500Y-1922679D01*
X1071110Y-1933000D01*
X1106535Y-1935636D01*
X1143636Y-1932682D01*
X1171818Y-1921889D01*
X1192243Y-1900360D01*
X1206079Y-1865199D01*
X1214491Y-1813510D01*
X1218643Y-1742394D01*
X1219703Y-1654342D01*
X1219703Y-1458614D01*
X1358020Y-1458614D01*
X1358020Y-2062179D01*
X1288862Y-2062179D01*
X1247170Y-2060489D01*
X1225701Y-2054556D01*
X1219703Y-2043293D01*
X1216091Y-2033261D01*
X1201714Y-2035383D01*
X1172736Y-2049580D01*
X1106319Y-2071480D01*
X1035875Y-2069928D01*
X968377Y-2046147D01*
X936233Y-2027362D01*
X911715Y-2007022D01*
X893804Y-1981573D01*
X881479Y-1947458D01*
X873723Y-1901121D01*
X869516Y-1839007D01*
X867840Y-1757561D01*
X867624Y-1694578D01*
X867624Y-1458614D01*
X993367Y-1458614D01*
X993367Y-1654342D01*
G37*
X993367Y-1654342D02*
X994555Y-1746563D01*
X998897Y-1816610D01*
X1007558Y-1867381D01*
X1021704Y-1901772D01*
X1042500Y-1922679D01*
X1071110Y-1933000D01*
X1106535Y-1935636D01*
X1143636Y-1932682D01*
X1171818Y-1921889D01*
X1192243Y-1900360D01*
X1206079Y-1865199D01*
X1214491Y-1813510D01*
X1218643Y-1742394D01*
X1219703Y-1654342D01*
X1219703Y-1458614D01*
X1358020Y-1458614D01*
X1358020Y-2062179D01*
X1288862Y-2062179D01*
X1247170Y-2060489D01*
X1225701Y-2054556D01*
X1219703Y-2043293D01*
X1216091Y-2033261D01*
X1201714Y-2035383D01*
X1172736Y-2049580D01*
X1106319Y-2071480D01*
X1035875Y-2069928D01*
X968377Y-2046147D01*
X936233Y-2027362D01*
X911715Y-2007022D01*
X893804Y-1981573D01*
X881479Y-1947458D01*
X873723Y-1901121D01*
X869516Y-1839007D01*
X867840Y-1757561D01*
X867624Y-1694578D01*
X867624Y-1458614D01*
X993367Y-1458614D01*
X993367Y-1654342D01*
G36*
X610762Y-1466055D02*
G01*
X674363Y-1500692D01*
X724123Y-1555372D01*
X747568Y-1599842D01*
X757634Y-1639121D01*
X764156Y-1695116D01*
X766951Y-1759621D01*
X765836Y-1824429D01*
X760626Y-1881334D01*
X754541Y-1911727D01*
X734014Y-1953306D01*
X698463Y-1997468D01*
X655619Y-2036087D01*
X613211Y-2061034D01*
X612177Y-2061430D01*
X559553Y-2072331D01*
X497188Y-2072601D01*
X437924Y-2062676D01*
X415040Y-2054722D01*
X356102Y-2021300D01*
X313890Y-1977511D01*
X286156Y-1919538D01*
X270651Y-1843565D01*
X267143Y-1803771D01*
X267590Y-1753766D01*
X402376Y-1753766D01*
X406917Y-1826732D01*
X419986Y-1882334D01*
X440756Y-1917861D01*
X455552Y-1928020D01*
X493464Y-1935104D01*
X538527Y-1933007D01*
X577487Y-1922812D01*
X587704Y-1917204D01*
X614659Y-1884538D01*
X632451Y-1834545D01*
X640024Y-1773705D01*
X636325Y-1708497D01*
X628057Y-1669253D01*
X604320Y-1623805D01*
X566849Y-1595396D01*
X521720Y-1585573D01*
X475011Y-1595887D01*
X439132Y-1621112D01*
X420277Y-1641925D01*
X409272Y-1662439D01*
X404026Y-1690203D01*
X402449Y-1732762D01*
X402376Y-1753766D01*
X267590Y-1753766D01*
X268094Y-1697580D01*
X285388Y-1610501D01*
X319029Y-1542530D01*
X369018Y-1493664D01*
X435356Y-1463899D01*
X449601Y-1460448D01*
X535210Y-1452345D01*
X610762Y-1466055D01*
G37*
X610762Y-1466055D02*
X674363Y-1500692D01*
X724123Y-1555372D01*
X747568Y-1599842D01*
X757634Y-1639121D01*
X764156Y-1695116D01*
X766951Y-1759621D01*
X765836Y-1824429D01*
X760626Y-1881334D01*
X754541Y-1911727D01*
X734014Y-1953306D01*
X698463Y-1997468D01*
X655619Y-2036087D01*
X613211Y-2061034D01*
X612177Y-2061430D01*
X559553Y-2072331D01*
X497188Y-2072601D01*
X437924Y-2062676D01*
X415040Y-2054722D01*
X356102Y-2021300D01*
X313890Y-1977511D01*
X286156Y-1919538D01*
X270651Y-1843565D01*
X267143Y-1803771D01*
X267590Y-1753766D01*
X402376Y-1753766D01*
X406917Y-1826732D01*
X419986Y-1882334D01*
X440756Y-1917861D01*
X455552Y-1928020D01*
X493464Y-1935104D01*
X538527Y-1933007D01*
X577487Y-1922812D01*
X587704Y-1917204D01*
X614659Y-1884538D01*
X632451Y-1834545D01*
X640024Y-1773705D01*
X636325Y-1708497D01*
X628057Y-1669253D01*
X604320Y-1623805D01*
X566849Y-1595396D01*
X521720Y-1585573D01*
X475011Y-1595887D01*
X439132Y-1621112D01*
X420277Y-1641925D01*
X409272Y-1662439D01*
X404026Y-1690203D01*
X402449Y-1732762D01*
X402376Y-1753766D01*
X267590Y-1753766D01*
X268094Y-1697580D01*
X285388Y-1610501D01*
X319029Y-1542530D01*
X369018Y-1493664D01*
X435356Y-1463899D01*
X449601Y-1460448D01*
X535210Y-1452345D01*
X610762Y-1466055D01*
G36*
X14017Y-1456452D02*
G01*
X61634Y-1465482D01*
X111034Y-1484370D01*
X116312Y-1486777D01*
X153774Y-1506476D01*
X179717Y-1524781D01*
X188103Y-1536508D01*
X180117Y-1555632D01*
X160720Y-1583850D01*
X152110Y-1594384D01*
X116628Y-1635847D01*
X70885Y-1608858D01*
X27350Y-1590878D01*
X-22950Y-1581267D01*
X-71188Y-1580660D01*
X-108533Y-1589691D01*
X-117495Y-1595327D01*
X-134563Y-1621171D01*
X-136637Y-1650941D01*
X-123866Y-1674197D01*
X-116312Y-1678708D01*
X-93675Y-1684309D01*
X-53885Y-1690892D01*
X-4834Y-1697183D01*
X4215Y-1698170D01*
X82996Y-1711798D01*
X140136Y-1734946D01*
X178030Y-1769752D01*
X199079Y-1818354D01*
X205635Y-1877718D01*
X196577Y-1945198D01*
X167164Y-1998188D01*
X117278Y-2036783D01*
X46800Y-2061081D01*
X-31435Y-2070667D01*
X-95234Y-2070552D01*
X-146984Y-2061845D01*
X-182327Y-2049825D01*
X-226983Y-2028880D01*
X-268253Y-2004574D01*
X-282921Y-1993876D01*
X-320643Y-1963084D01*
X-275148Y-1917049D01*
X-229653Y-1871013D01*
X-177928Y-1905243D01*
X-126048Y-1930952D01*
X-70649Y-1944399D01*
X-17395Y-1945818D01*
X28049Y-1935443D01*
X60016Y-1913507D01*
X70338Y-1894998D01*
X68789Y-1865314D01*
X43140Y-1842615D01*
X-6540Y-1826940D01*
X-60969Y-1819695D01*
X-144736Y-1805873D01*
X-206967Y-1779796D01*
X-248493Y-1740699D01*
X-270147Y-1687820D01*
X-273147Y-1625126D01*
X-258329Y-1559642D01*
X-224546Y-1510144D01*
X-171495Y-1476408D01*
X-98874Y-1458207D01*
X-45072Y-1454639D01*
X14017Y-1456452D01*
G37*
X14017Y-1456452D02*
X61634Y-1465482D01*
X111034Y-1484370D01*
X116312Y-1486777D01*
X153774Y-1506476D01*
X179717Y-1524781D01*
X188103Y-1536508D01*
X180117Y-1555632D01*
X160720Y-1583850D01*
X152110Y-1594384D01*
X116628Y-1635847D01*
X70885Y-1608858D01*
X27350Y-1590878D01*
X-22950Y-1581267D01*
X-71188Y-1580660D01*
X-108533Y-1589691D01*
X-117495Y-1595327D01*
X-134563Y-1621171D01*
X-136637Y-1650941D01*
X-123866Y-1674197D01*
X-116312Y-1678708D01*
X-93675Y-1684309D01*
X-53885Y-1690892D01*
X-4834Y-1697183D01*
X4215Y-1698170D01*
X82996Y-1711798D01*
X140136Y-1734946D01*
X178030Y-1769752D01*
X199079Y-1818354D01*
X205635Y-1877718D01*
X196577Y-1945198D01*
X167164Y-1998188D01*
X117278Y-2036783D01*
X46800Y-2061081D01*
X-31435Y-2070667D01*
X-95234Y-2070552D01*
X-146984Y-2061845D01*
X-182327Y-2049825D01*
X-226983Y-2028880D01*
X-268253Y-2004574D01*
X-282921Y-1993876D01*
X-320643Y-1963084D01*
X-275148Y-1917049D01*
X-229653Y-1871013D01*
X-177928Y-1905243D01*
X-126048Y-1930952D01*
X-70649Y-1944399D01*
X-17395Y-1945818D01*
X28049Y-1935443D01*
X60016Y-1913507D01*
X70338Y-1894998D01*
X68789Y-1865314D01*
X43140Y-1842615D01*
X-6540Y-1826940D01*
X-60969Y-1819695D01*
X-144736Y-1805873D01*
X-206967Y-1779796D01*
X-248493Y-1740699D01*
X-270147Y-1687820D01*
X-273147Y-1625126D01*
X-258329Y-1559642D01*
X-224546Y-1510144D01*
X-171495Y-1476408D01*
X-98874Y-1458207D01*
X-45072Y-1454639D01*
X14017Y-1456452D01*
G36*
X-1356699Y-1472614D02*
G01*
X-1344168Y-1478514D01*
X-1300799Y-1510283D01*
X-1259790Y-1556646D01*
X-1229168Y-1607696D01*
X-1220459Y-1631166D01*
X-1212512Y-1673091D01*
X-1207774Y-1723757D01*
X-1207199Y-1744679D01*
X-1207129Y-1810693D01*
X-1587083Y-1810693D01*
X-1578983Y-1845273D01*
X-1559104Y-1886170D01*
X-1524347Y-1921514D01*
X-1482998Y-1944282D01*
X-1456649Y-1949010D01*
X-1420916Y-1943273D01*
X-1378282Y-1928882D01*
X-1363799Y-1922262D01*
X-1310240Y-1895513D01*
X-1264533Y-1930376D01*
X-1238158Y-1953955D01*
X-1224124Y-1973417D01*
X-1223414Y-1979129D01*
X-1235951Y-1992973D01*
X-1263428Y-2014012D01*
X-1288366Y-2030425D01*
X-1355664Y-2059930D01*
X-1431110Y-2073284D01*
X-1505888Y-2069812D01*
X-1565495Y-2051663D01*
X-1626941Y-2012784D01*
X-1670608Y-1961595D01*
X-1697926Y-1895367D01*
X-1710322Y-1811371D01*
X-1711421Y-1772936D01*
X-1707022Y-1684861D01*
X-1706482Y-1682299D01*
X-1580582Y-1682299D01*
X-1577115Y-1690558D01*
X-1562863Y-1695113D01*
X-1533470Y-1697065D01*
X-1484575Y-1697517D01*
X-1465748Y-1697525D01*
X-1408467Y-1696843D01*
X-1372141Y-1694364D01*
X-1352604Y-1689443D01*
X-1345690Y-1681434D01*
X-1345445Y-1678862D01*
X-1353336Y-1658423D01*
X-1373085Y-1629789D01*
X-1381575Y-1619763D01*
X-1413094Y-1591408D01*
X-1445949Y-1580259D01*
X-1463651Y-1579327D01*
X-1511539Y-1590981D01*
X-1551699Y-1622285D01*
X-1577173Y-1667752D01*
X-1577625Y-1669233D01*
X-1580582Y-1682299D01*
X-1706482Y-1682299D01*
X-1692392Y-1615510D01*
X-1666038Y-1560025D01*
X-1633807Y-1520639D01*
X-1574217Y-1477931D01*
X-1504168Y-1455109D01*
X-1429661Y-1453046D01*
X-1356699Y-1472614D01*
G37*
X-1356699Y-1472614D02*
X-1344168Y-1478514D01*
X-1300799Y-1510283D01*
X-1259790Y-1556646D01*
X-1229168Y-1607696D01*
X-1220459Y-1631166D01*
X-1212512Y-1673091D01*
X-1207774Y-1723757D01*
X-1207199Y-1744679D01*
X-1207129Y-1810693D01*
X-1587083Y-1810693D01*
X-1578983Y-1845273D01*
X-1559104Y-1886170D01*
X-1524347Y-1921514D01*
X-1482998Y-1944282D01*
X-1456649Y-1949010D01*
X-1420916Y-1943273D01*
X-1378282Y-1928882D01*
X-1363799Y-1922262D01*
X-1310240Y-1895513D01*
X-1264533Y-1930376D01*
X-1238158Y-1953955D01*
X-1224124Y-1973417D01*
X-1223414Y-1979129D01*
X-1235951Y-1992973D01*
X-1263428Y-2014012D01*
X-1288366Y-2030425D01*
X-1355664Y-2059930D01*
X-1431110Y-2073284D01*
X-1505888Y-2069812D01*
X-1565495Y-2051663D01*
X-1626941Y-2012784D01*
X-1670608Y-1961595D01*
X-1697926Y-1895367D01*
X-1710322Y-1811371D01*
X-1711421Y-1772936D01*
X-1707022Y-1684861D01*
X-1706482Y-1682299D01*
X-1580582Y-1682299D01*
X-1577115Y-1690558D01*
X-1562863Y-1695113D01*
X-1533470Y-1697065D01*
X-1484575Y-1697517D01*
X-1465748Y-1697525D01*
X-1408467Y-1696843D01*
X-1372141Y-1694364D01*
X-1352604Y-1689443D01*
X-1345690Y-1681434D01*
X-1345445Y-1678862D01*
X-1353336Y-1658423D01*
X-1373085Y-1629789D01*
X-1381575Y-1619763D01*
X-1413094Y-1591408D01*
X-1445949Y-1580259D01*
X-1463651Y-1579327D01*
X-1511539Y-1590981D01*
X-1551699Y-1622285D01*
X-1577173Y-1667752D01*
X-1577625Y-1669233D01*
X-1580582Y-1682299D01*
X-1706482Y-1682299D01*
X-1692392Y-1615510D01*
X-1666038Y-1560025D01*
X-1633807Y-1520639D01*
X-1574217Y-1477931D01*
X-1504168Y-1455109D01*
X-1429661Y-1453046D01*
X-1356699Y-1472614D01*
G36*
X-2538261Y-1465148D02*
G01*
X-2472479Y-1494231D01*
X-2422540Y-1542793D01*
X-2388374Y-1610908D01*
X-2369907Y-1698651D01*
X-2368583Y-1712351D01*
X-2367546Y-1808939D01*
X-2380993Y-1893602D01*
X-2408108Y-1962221D01*
X-2422627Y-1984294D01*
X-2473201Y-2031011D01*
X-2537609Y-2061268D01*
X-2609666Y-2073824D01*
X-2683185Y-2067439D01*
X-2739072Y-2047772D01*
X-2787132Y-2014629D01*
X-2826412Y-1971175D01*
X-2827092Y-1970158D01*
X-2843044Y-1943338D01*
X-2853410Y-1916368D01*
X-2859688Y-1882332D01*
X-2863373Y-1834310D01*
X-2864997Y-1794931D01*
X-2865672Y-1759219D01*
X-2739955Y-1759219D01*
X-2738726Y-1794770D01*
X-2734266Y-1842094D01*
X-2726397Y-1872465D01*
X-2712207Y-1894072D01*
X-2698917Y-1906694D01*
X-2651802Y-1933122D01*
X-2602505Y-1936653D01*
X-2556593Y-1917639D01*
X-2533638Y-1896331D01*
X-2517096Y-1874859D01*
X-2507421Y-1854313D01*
X-2503174Y-1827574D01*
X-2502920Y-1787523D01*
X-2504228Y-1750638D01*
X-2507043Y-1697947D01*
X-2511505Y-1663772D01*
X-2519548Y-1641480D01*
X-2533103Y-1624442D01*
X-2543845Y-1614703D01*
X-2588777Y-1589123D01*
X-2637249Y-1587847D01*
X-2677894Y-1602999D01*
X-2712567Y-1634642D01*
X-2733224Y-1686620D01*
X-2739955Y-1759219D01*
X-2865672Y-1759219D01*
X-2866479Y-1716621D01*
X-2863948Y-1658056D01*
X-2856362Y-1614007D01*
X-2842681Y-1579248D01*
X-2821865Y-1548551D01*
X-2814147Y-1539436D01*
X-2765889Y-1494021D01*
X-2714128Y-1467493D01*
X-2650828Y-1456379D01*
X-2619961Y-1455471D01*
X-2538261Y-1465148D01*
G37*
X-2538261Y-1465148D02*
X-2472479Y-1494231D01*
X-2422540Y-1542793D01*
X-2388374Y-1610908D01*
X-2369907Y-1698651D01*
X-2368583Y-1712351D01*
X-2367546Y-1808939D01*
X-2380993Y-1893602D01*
X-2408108Y-1962221D01*
X-2422627Y-1984294D01*
X-2473201Y-2031011D01*
X-2537609Y-2061268D01*
X-2609666Y-2073824D01*
X-2683185Y-2067439D01*
X-2739072Y-2047772D01*
X-2787132Y-2014629D01*
X-2826412Y-1971175D01*
X-2827092Y-1970158D01*
X-2843044Y-1943338D01*
X-2853410Y-1916368D01*
X-2859688Y-1882332D01*
X-2863373Y-1834310D01*
X-2864997Y-1794931D01*
X-2865672Y-1759219D01*
X-2739955Y-1759219D01*
X-2738726Y-1794770D01*
X-2734266Y-1842094D01*
X-2726397Y-1872465D01*
X-2712207Y-1894072D01*
X-2698917Y-1906694D01*
X-2651802Y-1933122D01*
X-2602505Y-1936653D01*
X-2556593Y-1917639D01*
X-2533638Y-1896331D01*
X-2517096Y-1874859D01*
X-2507421Y-1854313D01*
X-2503174Y-1827574D01*
X-2502920Y-1787523D01*
X-2504228Y-1750638D01*
X-2507043Y-1697947D01*
X-2511505Y-1663772D01*
X-2519548Y-1641480D01*
X-2533103Y-1624442D01*
X-2543845Y-1614703D01*
X-2588777Y-1589123D01*
X-2637249Y-1587847D01*
X-2677894Y-1602999D01*
X-2712567Y-1634642D01*
X-2733224Y-1686620D01*
X-2739955Y-1759219D01*
X-2865672Y-1759219D01*
X-2866479Y-1716621D01*
X-2863948Y-1658056D01*
X-2856362Y-1614007D01*
X-2842681Y-1579248D01*
X-2821865Y-1548551D01*
X-2814147Y-1539436D01*
X-2765889Y-1494021D01*
X-2714128Y-1467493D01*
X-2650828Y-1456379D01*
X-2619961Y-1455471D01*
X-2538261Y-1465148D01*
G36*
X2032581Y-2404970D02*
G01*
X2092685Y-2420597D01*
X2143021Y-2452848D01*
X2167393Y-2476940D01*
X2207345Y-2533895D01*
X2230242Y-2599965D01*
X2238108Y-2681182D01*
X2238148Y-2687748D01*
X2238218Y-2753763D01*
X1858264Y-2753763D01*
X1866363Y-2788342D01*
X1880987Y-2819659D01*
X1906581Y-2852291D01*
X1911935Y-2857500D01*
X1957943Y-2885694D01*
X2010410Y-2890475D01*
X2070803Y-2871926D01*
X2081040Y-2866931D01*
X2112439Y-2851745D01*
X2133470Y-2843094D01*
X2137139Y-2842293D01*
X2149948Y-2850063D01*
X2174378Y-2869072D01*
X2186779Y-2879460D01*
X2212476Y-2903321D01*
X2220915Y-2919077D01*
X2215058Y-2933571D01*
X2211928Y-2937534D01*
X2190725Y-2954879D01*
X2155738Y-2975959D01*
X2131337Y-2988265D01*
X2062072Y-3009946D01*
X1985388Y-3016971D01*
X1912765Y-3008647D01*
X1892426Y-3002686D01*
X1829476Y-2968952D01*
X1782815Y-2917045D01*
X1752173Y-2846459D01*
X1737282Y-2756692D01*
X1735647Y-2709753D01*
X1740421Y-2641413D01*
X1860990Y-2641413D01*
X1872652Y-2646465D01*
X1903998Y-2650429D01*
X1949571Y-2652768D01*
X1980446Y-2653169D01*
X2035981Y-2652783D01*
X2071033Y-2650975D01*
X2090262Y-2646773D01*
X2098330Y-2639203D01*
X2099901Y-2628218D01*
X2089121Y-2594381D01*
X2061980Y-2560940D01*
X2026277Y-2535272D01*
X1990560Y-2524772D01*
X1942048Y-2534086D01*
X1900053Y-2561013D01*
X1870936Y-2599827D01*
X1860990Y-2641413D01*
X1740421Y-2641413D01*
X1742599Y-2610236D01*
X1764055Y-2530949D01*
X1800470Y-2471263D01*
X1852297Y-2430549D01*
X1919990Y-2408179D01*
X1956662Y-2403871D01*
X2032581Y-2404970D01*
G37*
X2032581Y-2404970D02*
X2092685Y-2420597D01*
X2143021Y-2452848D01*
X2167393Y-2476940D01*
X2207345Y-2533895D01*
X2230242Y-2599965D01*
X2238108Y-2681182D01*
X2238148Y-2687748D01*
X2238218Y-2753763D01*
X1858264Y-2753763D01*
X1866363Y-2788342D01*
X1880987Y-2819659D01*
X1906581Y-2852291D01*
X1911935Y-2857500D01*
X1957943Y-2885694D01*
X2010410Y-2890475D01*
X2070803Y-2871926D01*
X2081040Y-2866931D01*
X2112439Y-2851745D01*
X2133470Y-2843094D01*
X2137139Y-2842293D01*
X2149948Y-2850063D01*
X2174378Y-2869072D01*
X2186779Y-2879460D01*
X2212476Y-2903321D01*
X2220915Y-2919077D01*
X2215058Y-2933571D01*
X2211928Y-2937534D01*
X2190725Y-2954879D01*
X2155738Y-2975959D01*
X2131337Y-2988265D01*
X2062072Y-3009946D01*
X1985388Y-3016971D01*
X1912765Y-3008647D01*
X1892426Y-3002686D01*
X1829476Y-2968952D01*
X1782815Y-2917045D01*
X1752173Y-2846459D01*
X1737282Y-2756692D01*
X1735647Y-2709753D01*
X1740421Y-2641413D01*
X1860990Y-2641413D01*
X1872652Y-2646465D01*
X1903998Y-2650429D01*
X1949571Y-2652768D01*
X1980446Y-2653169D01*
X2035981Y-2652783D01*
X2071033Y-2650975D01*
X2090262Y-2646773D01*
X2098330Y-2639203D01*
X2099901Y-2628218D01*
X2089121Y-2594381D01*
X2061980Y-2560940D01*
X2026277Y-2535272D01*
X1990560Y-2524772D01*
X1942048Y-2534086D01*
X1900053Y-2561013D01*
X1870936Y-2599827D01*
X1860990Y-2641413D01*
X1740421Y-2641413D01*
X1742599Y-2610236D01*
X1764055Y-2530949D01*
X1800470Y-2471263D01*
X1852297Y-2430549D01*
X1919990Y-2408179D01*
X1956662Y-2403871D01*
X2032581Y-2404970D01*
G36*
X1635255Y-2401486D02*
G01*
X1683595Y-2411015D01*
X1711114Y-2425125D01*
X1740064Y-2448568D01*
X1698876Y-2500571D01*
X1673482Y-2532064D01*
X1656238Y-2547428D01*
X1639102Y-2549776D01*
X1614027Y-2542217D01*
X1602257Y-2537941D01*
X1554270Y-2531631D01*
X1510324Y-2545156D01*
X1478060Y-2575710D01*
X1472819Y-2585452D01*
X1467112Y-2611258D01*
X1462706Y-2658817D01*
X1459811Y-2724758D01*
X1458631Y-2805710D01*
X1458614Y-2817226D01*
X1458614Y-3017822D01*
X1320297Y-3017822D01*
X1320297Y-2401683D01*
X1389456Y-2401683D01*
X1429333Y-2402725D01*
X1450107Y-2407358D01*
X1457789Y-2417849D01*
X1458614Y-2427745D01*
X1458614Y-2453806D01*
X1491745Y-2427745D01*
X1529735Y-2409965D01*
X1580770Y-2401174D01*
X1635255Y-2401486D01*
G37*
X1635255Y-2401486D02*
X1683595Y-2411015D01*
X1711114Y-2425125D01*
X1740064Y-2448568D01*
X1698876Y-2500571D01*
X1673482Y-2532064D01*
X1656238Y-2547428D01*
X1639102Y-2549776D01*
X1614027Y-2542217D01*
X1602257Y-2537941D01*
X1554270Y-2531631D01*
X1510324Y-2545156D01*
X1478060Y-2575710D01*
X1472819Y-2585452D01*
X1467112Y-2611258D01*
X1462706Y-2658817D01*
X1459811Y-2724758D01*
X1458631Y-2805710D01*
X1458614Y-2817226D01*
X1458614Y-3017822D01*
X1320297Y-3017822D01*
X1320297Y-2401683D01*
X1389456Y-2401683D01*
X1429333Y-2402725D01*
X1450107Y-2407358D01*
X1457789Y-2417849D01*
X1458614Y-2427745D01*
X1458614Y-2453806D01*
X1491745Y-2427745D01*
X1529735Y-2409965D01*
X1580770Y-2401174D01*
X1635255Y-2401486D01*
G36*
X1038411Y-2405417D02*
G01*
X1091411Y-2418290D01*
X1106731Y-2425110D01*
X1136428Y-2442974D01*
X1159220Y-2463093D01*
X1176083Y-2488962D01*
X1187998Y-2524073D01*
X1195942Y-2571920D01*
X1200894Y-2635996D01*
X1203831Y-2719794D01*
X1204947Y-2775768D01*
X1209052Y-3017822D01*
X1138932Y-3017822D01*
X1096393Y-3016038D01*
X1074476Y-3009942D01*
X1068812Y-2999706D01*
X1065821Y-2988637D01*
X1052451Y-2990754D01*
X1034233Y-2999629D01*
X988624Y-3013233D01*
X930007Y-3016899D01*
X868354Y-3010903D01*
X813638Y-2995521D01*
X808730Y-2993386D01*
X758723Y-2958255D01*
X725756Y-2909419D01*
X710587Y-2852333D01*
X711746Y-2831824D01*
X835508Y-2831824D01*
X846413Y-2859425D01*
X878745Y-2879204D01*
X930910Y-2889819D01*
X958787Y-2891228D01*
X1005247Y-2887620D01*
X1036129Y-2873597D01*
X1043664Y-2866931D01*
X1064076Y-2830666D01*
X1068812Y-2797773D01*
X1068812Y-2753763D01*
X1007513Y-2753763D01*
X936256Y-2757395D01*
X886276Y-2768818D01*
X854696Y-2788824D01*
X847626Y-2797743D01*
X835508Y-2831824D01*
X711746Y-2831824D01*
X713971Y-2792456D01*
X736663Y-2735244D01*
X767624Y-2696580D01*
X786376Y-2679864D01*
X804733Y-2668878D01*
X828619Y-2662180D01*
X863957Y-2658326D01*
X916669Y-2655873D01*
X937577Y-2655168D01*
X1068812Y-2650879D01*
X1068620Y-2611158D01*
X1063537Y-2569405D01*
X1045162Y-2544158D01*
X1008039Y-2528030D01*
X1007043Y-2527742D01*
X954410Y-2521400D01*
X902906Y-2529684D01*
X864630Y-2549827D01*
X849272Y-2559773D01*
X832730Y-2558397D01*
X807275Y-2543987D01*
X792328Y-2533817D01*
X763091Y-2512088D01*
X744980Y-2495800D01*
X742074Y-2491137D01*
X754040Y-2467005D01*
X789396Y-2438185D01*
X804753Y-2428461D01*
X848901Y-2411714D01*
X908398Y-2402227D01*
X974487Y-2400095D01*
X1038411Y-2405417D01*
G37*
X1038411Y-2405417D02*
X1091411Y-2418290D01*
X1106731Y-2425110D01*
X1136428Y-2442974D01*
X1159220Y-2463093D01*
X1176083Y-2488962D01*
X1187998Y-2524073D01*
X1195942Y-2571920D01*
X1200894Y-2635996D01*
X1203831Y-2719794D01*
X1204947Y-2775768D01*
X1209052Y-3017822D01*
X1138932Y-3017822D01*
X1096393Y-3016038D01*
X1074476Y-3009942D01*
X1068812Y-2999706D01*
X1065821Y-2988637D01*
X1052451Y-2990754D01*
X1034233Y-2999629D01*
X988624Y-3013233D01*
X930007Y-3016899D01*
X868354Y-3010903D01*
X813638Y-2995521D01*
X808730Y-2993386D01*
X758723Y-2958255D01*
X725756Y-2909419D01*
X710587Y-2852333D01*
X711746Y-2831824D01*
X835508Y-2831824D01*
X846413Y-2859425D01*
X878745Y-2879204D01*
X930910Y-2889819D01*
X958787Y-2891228D01*
X1005247Y-2887620D01*
X1036129Y-2873597D01*
X1043664Y-2866931D01*
X1064076Y-2830666D01*
X1068812Y-2797773D01*
X1068812Y-2753763D01*
X1007513Y-2753763D01*
X936256Y-2757395D01*
X886276Y-2768818D01*
X854696Y-2788824D01*
X847626Y-2797743D01*
X835508Y-2831824D01*
X711746Y-2831824D01*
X713971Y-2792456D01*
X736663Y-2735244D01*
X767624Y-2696580D01*
X786376Y-2679864D01*
X804733Y-2668878D01*
X828619Y-2662180D01*
X863957Y-2658326D01*
X916669Y-2655873D01*
X937577Y-2655168D01*
X1068812Y-2650879D01*
X1068620Y-2611158D01*
X1063537Y-2569405D01*
X1045162Y-2544158D01*
X1008039Y-2528030D01*
X1007043Y-2527742D01*
X954410Y-2521400D01*
X902906Y-2529684D01*
X864630Y-2549827D01*
X849272Y-2559773D01*
X832730Y-2558397D01*
X807275Y-2543987D01*
X792328Y-2533817D01*
X763091Y-2512088D01*
X744980Y-2495800D01*
X742074Y-2491137D01*
X754040Y-2467005D01*
X789396Y-2438185D01*
X804753Y-2428461D01*
X848901Y-2411714D01*
X908398Y-2402227D01*
X974487Y-2400095D01*
X1038411Y-2405417D01*
G36*
X281524Y-2404237D02*
G01*
X331255Y-2407971D01*
X461291Y-2797773D01*
X481678Y-2728614D01*
X493946Y-2685874D01*
X510085Y-2628115D01*
X527512Y-2564625D01*
X536726Y-2530570D01*
X571388Y-2401683D01*
X714391Y-2401683D01*
X671646Y-2536857D01*
X650596Y-2603342D01*
X625167Y-2683539D01*
X598610Y-2767193D01*
X574902Y-2841782D01*
X520902Y-3011535D01*
X462598Y-3015328D01*
X404295Y-3019122D01*
X372679Y-2914734D01*
X353182Y-2849889D01*
X331904Y-2778400D01*
X313308Y-2715263D01*
X312574Y-2712750D01*
X298684Y-2669969D01*
X286429Y-2640779D01*
X277846Y-2629741D01*
X276082Y-2631018D01*
X269891Y-2648130D01*
X258128Y-2684787D01*
X242225Y-2736378D01*
X223614Y-2798294D01*
X213543Y-2832352D01*
X159007Y-3017822D01*
X43264Y-3017822D01*
X-49263Y-2725471D01*
X-75256Y-2643462D01*
X-98934Y-2568987D01*
X-119180Y-2505544D01*
X-134874Y-2456632D01*
X-144898Y-2425749D01*
X-147945Y-2416726D01*
X-145533Y-2407487D01*
X-126592Y-2403441D01*
X-87177Y-2403846D01*
X-81007Y-2404152D01*
X-7914Y-2407971D01*
X39957Y-2584010D01*
X57553Y-2648211D01*
X73277Y-2704649D01*
X85746Y-2748422D01*
X93574Y-2774630D01*
X95020Y-2778903D01*
X101014Y-2773990D01*
X113101Y-2748532D01*
X129893Y-2705997D01*
X150003Y-2649850D01*
X167003Y-2599130D01*
X231794Y-2400504D01*
X281524Y-2404237D01*
G37*
X281524Y-2404237D02*
X331255Y-2407971D01*
X461291Y-2797773D01*
X481678Y-2728614D01*
X493946Y-2685874D01*
X510085Y-2628115D01*
X527512Y-2564625D01*
X536726Y-2530570D01*
X571388Y-2401683D01*
X714391Y-2401683D01*
X671646Y-2536857D01*
X650596Y-2603342D01*
X625167Y-2683539D01*
X598610Y-2767193D01*
X574902Y-2841782D01*
X520902Y-3011535D01*
X462598Y-3015328D01*
X404295Y-3019122D01*
X372679Y-2914734D01*
X353182Y-2849889D01*
X331904Y-2778400D01*
X313308Y-2715263D01*
X312574Y-2712750D01*
X298684Y-2669969D01*
X286429Y-2640779D01*
X277846Y-2629741D01*
X276082Y-2631018D01*
X269891Y-2648130D01*
X258128Y-2684787D01*
X242225Y-2736378D01*
X223614Y-2798294D01*
X213543Y-2832352D01*
X159007Y-3017822D01*
X43264Y-3017822D01*
X-49263Y-2725471D01*
X-75256Y-2643462D01*
X-98934Y-2568987D01*
X-119180Y-2505544D01*
X-134874Y-2456632D01*
X-144898Y-2425749D01*
X-147945Y-2416726D01*
X-145533Y-2407487D01*
X-126592Y-2403441D01*
X-87177Y-2403846D01*
X-81007Y-2404152D01*
X-7914Y-2407971D01*
X39957Y-2584010D01*
X57553Y-2648211D01*
X73277Y-2704649D01*
X85746Y-2748422D01*
X93574Y-2774630D01*
X95020Y-2778903D01*
X101014Y-2773990D01*
X113101Y-2748532D01*
X129893Y-2705997D01*
X150003Y-2649850D01*
X167003Y-2599130D01*
X231794Y-2400504D01*
X281524Y-2404237D01*
G36*
X-201188Y-3017822D02*
G01*
X-270346Y-3017822D01*
X-310488Y-3016645D01*
X-331394Y-3011772D01*
X-338922Y-3001186D01*
X-339505Y-2994029D01*
X-340774Y-2979676D01*
X-348779Y-2976923D01*
X-369815Y-2985771D01*
X-386173Y-2994029D01*
X-448977Y-3013597D01*
X-517248Y-3014729D01*
X-572752Y-3000135D01*
X-624438Y-2964877D01*
X-663838Y-2912835D01*
X-685413Y-2851450D01*
X-685962Y-2848018D01*
X-689167Y-2810571D01*
X-690761Y-2756813D01*
X-690633Y-2716155D01*
X-553279Y-2716155D01*
X-550097Y-2770194D01*
X-542859Y-2814735D01*
X-533060Y-2839888D01*
X-495989Y-2874260D01*
X-451974Y-2886582D01*
X-406584Y-2876618D01*
X-367797Y-2846895D01*
X-353108Y-2826905D01*
X-344519Y-2803050D01*
X-340496Y-2768230D01*
X-339505Y-2715930D01*
X-341278Y-2664139D01*
X-345963Y-2618634D01*
X-352603Y-2588181D01*
X-353710Y-2585452D01*
X-380491Y-2553000D01*
X-419579Y-2535183D01*
X-463315Y-2532306D01*
X-504038Y-2544674D01*
X-534087Y-2572593D01*
X-537204Y-2578148D01*
X-546961Y-2612022D01*
X-552277Y-2660728D01*
X-553279Y-2716155D01*
X-690633Y-2716155D01*
X-690568Y-2695540D01*
X-689664Y-2662563D01*
X-683514Y-2580981D01*
X-670733Y-2519730D01*
X-649471Y-2474449D01*
X-617878Y-2440779D01*
X-587207Y-2421014D01*
X-544354Y-2407120D01*
X-491056Y-2402354D01*
X-436480Y-2406236D01*
X-389792Y-2418282D01*
X-365124Y-2432693D01*
X-339505Y-2455878D01*
X-339505Y-2162773D01*
X-201188Y-2162773D01*
X-201188Y-3017822D01*
G37*
X-201188Y-3017822D02*
X-270346Y-3017822D01*
X-310488Y-3016645D01*
X-331394Y-3011772D01*
X-338922Y-3001186D01*
X-339505Y-2994029D01*
X-340774Y-2979676D01*
X-348779Y-2976923D01*
X-369815Y-2985771D01*
X-386173Y-2994029D01*
X-448977Y-3013597D01*
X-517248Y-3014729D01*
X-572752Y-3000135D01*
X-624438Y-2964877D01*
X-663838Y-2912835D01*
X-685413Y-2851450D01*
X-685962Y-2848018D01*
X-689167Y-2810571D01*
X-690761Y-2756813D01*
X-690633Y-2716155D01*
X-553279Y-2716155D01*
X-550097Y-2770194D01*
X-542859Y-2814735D01*
X-533060Y-2839888D01*
X-495989Y-2874260D01*
X-451974Y-2886582D01*
X-406584Y-2876618D01*
X-367797Y-2846895D01*
X-353108Y-2826905D01*
X-344519Y-2803050D01*
X-340496Y-2768230D01*
X-339505Y-2715930D01*
X-341278Y-2664139D01*
X-345963Y-2618634D01*
X-352603Y-2588181D01*
X-353710Y-2585452D01*
X-380491Y-2553000D01*
X-419579Y-2535183D01*
X-463315Y-2532306D01*
X-504038Y-2544674D01*
X-534087Y-2572593D01*
X-537204Y-2578148D01*
X-546961Y-2612022D01*
X-552277Y-2660728D01*
X-553279Y-2716155D01*
X-690633Y-2716155D01*
X-690568Y-2695540D01*
X-689664Y-2662563D01*
X-683514Y-2580981D01*
X-670733Y-2519730D01*
X-649471Y-2474449D01*
X-617878Y-2440779D01*
X-587207Y-2421014D01*
X-544354Y-2407120D01*
X-491056Y-2402354D01*
X-436480Y-2406236D01*
X-389792Y-2418282D01*
X-365124Y-2432693D01*
X-339505Y-2455878D01*
X-339505Y-2162773D01*
X-201188Y-2162773D01*
X-201188Y-3017822D01*
G36*
X-993356Y-2403020D02*
G01*
X-974539Y-2408660D01*
X-968473Y-2421053D01*
X-968218Y-2426647D01*
X-967129Y-2442230D01*
X-959632Y-2444676D01*
X-939381Y-2433993D01*
X-927351Y-2426694D01*
X-889400Y-2411063D01*
X-844072Y-2403334D01*
X-796544Y-2402740D01*
X-751995Y-2408513D01*
X-715602Y-2419884D01*
X-692543Y-2436088D01*
X-687996Y-2456355D01*
X-690291Y-2461843D01*
X-707020Y-2484626D01*
X-732963Y-2512647D01*
X-737655Y-2517177D01*
X-762383Y-2538005D01*
X-783718Y-2544735D01*
X-813555Y-2540038D01*
X-825508Y-2536917D01*
X-862705Y-2529421D01*
X-888859Y-2532792D01*
X-910946Y-2544681D01*
X-931178Y-2560635D01*
X-946079Y-2580700D01*
X-956434Y-2608702D01*
X-963029Y-2648467D01*
X-966649Y-2703823D01*
X-968078Y-2778594D01*
X-968218Y-2823740D01*
X-968218Y-3017822D01*
X-1093960Y-3017822D01*
X-1093960Y-2401683D01*
X-1031089Y-2401683D01*
X-993356Y-2403020D01*
G37*
X-993356Y-2403020D02*
X-974539Y-2408660D01*
X-968473Y-2421053D01*
X-968218Y-2426647D01*
X-967129Y-2442230D01*
X-959632Y-2444676D01*
X-939381Y-2433993D01*
X-927351Y-2426694D01*
X-889400Y-2411063D01*
X-844072Y-2403334D01*
X-796544Y-2402740D01*
X-751995Y-2408513D01*
X-715602Y-2419884D01*
X-692543Y-2436088D01*
X-687996Y-2456355D01*
X-690291Y-2461843D01*
X-707020Y-2484626D01*
X-732963Y-2512647D01*
X-737655Y-2517177D01*
X-762383Y-2538005D01*
X-783718Y-2544735D01*
X-813555Y-2540038D01*
X-825508Y-2536917D01*
X-862705Y-2529421D01*
X-888859Y-2532792D01*
X-910946Y-2544681D01*
X-931178Y-2560635D01*
X-946079Y-2580700D01*
X-956434Y-2608702D01*
X-963029Y-2648467D01*
X-966649Y-2703823D01*
X-968078Y-2778594D01*
X-968218Y-2823740D01*
X-968218Y-3017822D01*
X-1093960Y-3017822D01*
X-1093960Y-2401683D01*
X-1031089Y-2401683D01*
X-993356Y-2403020D01*
G36*
X-1384210Y-2406555D02*
G01*
X-1325055Y-2422339D01*
X-1280023Y-2450948D01*
X-1248246Y-2488419D01*
X-1238366Y-2504411D01*
X-1231073Y-2521163D01*
X-1225974Y-2542592D01*
X-1222679Y-2572616D01*
X-1220797Y-2615154D01*
X-1219937Y-2674122D01*
X-1219707Y-2753440D01*
X-1219703Y-2774484D01*
X-1219703Y-3017822D01*
X-1280059Y-3017822D01*
X-1318557Y-3015126D01*
X-1347023Y-3008295D01*
X-1354155Y-3004083D01*
X-1373652Y-2996813D01*
X-1393566Y-3004083D01*
X-1426353Y-3013160D01*
X-1473978Y-3016813D01*
X-1526764Y-3015228D01*
X-1575036Y-3008589D01*
X-1603218Y-3000072D01*
X-1657753Y-2965063D01*
X-1691835Y-2916479D01*
X-1707157Y-2851882D01*
X-1707299Y-2850223D01*
X-1705955Y-2821566D01*
X-1584356Y-2821566D01*
X-1573726Y-2854161D01*
X-1556410Y-2872505D01*
X-1521652Y-2886379D01*
X-1475773Y-2891917D01*
X-1428988Y-2889191D01*
X-1391514Y-2878274D01*
X-1381015Y-2871269D01*
X-1362668Y-2838904D01*
X-1358020Y-2802111D01*
X-1358020Y-2753763D01*
X-1427582Y-2753763D01*
X-1493667Y-2758850D01*
X-1543764Y-2773263D01*
X-1574929Y-2795729D01*
X-1584356Y-2821566D01*
X-1705955Y-2821566D01*
X-1703987Y-2779647D01*
X-1680710Y-2723845D01*
X-1636948Y-2681647D01*
X-1630899Y-2677808D01*
X-1604907Y-2665309D01*
X-1572735Y-2657740D01*
X-1527760Y-2654061D01*
X-1474331Y-2653216D01*
X-1358020Y-2653169D01*
X-1358020Y-2604411D01*
X-1362953Y-2566581D01*
X-1375543Y-2541236D01*
X-1377017Y-2539887D01*
X-1405034Y-2528800D01*
X-1447326Y-2524503D01*
X-1494064Y-2526615D01*
X-1535418Y-2534756D01*
X-1559957Y-2546965D01*
X-1573253Y-2556746D01*
X-1587294Y-2558613D01*
X-1606671Y-2550600D01*
X-1635976Y-2530739D01*
X-1679803Y-2497063D01*
X-1683825Y-2493909D01*
X-1681764Y-2482236D01*
X-1664568Y-2462822D01*
X-1638433Y-2441248D01*
X-1609552Y-2423096D01*
X-1600478Y-2418809D01*
X-1567380Y-2410256D01*
X-1518880Y-2404155D01*
X-1464695Y-2401708D01*
X-1462161Y-2401703D01*
X-1384210Y-2406555D01*
G37*
X-1384210Y-2406555D02*
X-1325055Y-2422339D01*
X-1280023Y-2450948D01*
X-1248246Y-2488419D01*
X-1238366Y-2504411D01*
X-1231073Y-2521163D01*
X-1225974Y-2542592D01*
X-1222679Y-2572616D01*
X-1220797Y-2615154D01*
X-1219937Y-2674122D01*
X-1219707Y-2753440D01*
X-1219703Y-2774484D01*
X-1219703Y-3017822D01*
X-1280059Y-3017822D01*
X-1318557Y-3015126D01*
X-1347023Y-3008295D01*
X-1354155Y-3004083D01*
X-1373652Y-2996813D01*
X-1393566Y-3004083D01*
X-1426353Y-3013160D01*
X-1473978Y-3016813D01*
X-1526764Y-3015228D01*
X-1575036Y-3008589D01*
X-1603218Y-3000072D01*
X-1657753Y-2965063D01*
X-1691835Y-2916479D01*
X-1707157Y-2851882D01*
X-1707299Y-2850223D01*
X-1705955Y-2821566D01*
X-1584356Y-2821566D01*
X-1573726Y-2854161D01*
X-1556410Y-2872505D01*
X-1521652Y-2886379D01*
X-1475773Y-2891917D01*
X-1428988Y-2889191D01*
X-1391514Y-2878274D01*
X-1381015Y-2871269D01*
X-1362668Y-2838904D01*
X-1358020Y-2802111D01*
X-1358020Y-2753763D01*
X-1427582Y-2753763D01*
X-1493667Y-2758850D01*
X-1543764Y-2773263D01*
X-1574929Y-2795729D01*
X-1584356Y-2821566D01*
X-1705955Y-2821566D01*
X-1703987Y-2779647D01*
X-1680710Y-2723845D01*
X-1636948Y-2681647D01*
X-1630899Y-2677808D01*
X-1604907Y-2665309D01*
X-1572735Y-2657740D01*
X-1527760Y-2654061D01*
X-1474331Y-2653216D01*
X-1358020Y-2653169D01*
X-1358020Y-2604411D01*
X-1362953Y-2566581D01*
X-1375543Y-2541236D01*
X-1377017Y-2539887D01*
X-1405034Y-2528800D01*
X-1447326Y-2524503D01*
X-1494064Y-2526615D01*
X-1535418Y-2534756D01*
X-1559957Y-2546965D01*
X-1573253Y-2556746D01*
X-1587294Y-2558613D01*
X-1606671Y-2550600D01*
X-1635976Y-2530739D01*
X-1679803Y-2497063D01*
X-1683825Y-2493909D01*
X-1681764Y-2482236D01*
X-1664568Y-2462822D01*
X-1638433Y-2441248D01*
X-1609552Y-2423096D01*
X-1600478Y-2418809D01*
X-1567380Y-2410256D01*
X-1518880Y-2404155D01*
X-1464695Y-2401708D01*
X-1462161Y-2401703D01*
X-1384210Y-2406555D01*
G36*
X-1908759Y-1469184D02*
G01*
X-1882247Y-1482282D01*
X-1849553Y-1505106D01*
X-1825725Y-1529996D01*
X-1809406Y-1561249D01*
X-1799240Y-1603166D01*
X-1793872Y-1660044D01*
X-1791944Y-1736184D01*
X-1791831Y-1768917D01*
X-1792161Y-1840656D01*
X-1793527Y-1891927D01*
X-1796500Y-1927404D01*
X-1801649Y-1951763D01*
X-1809543Y-1969680D01*
X-1817757Y-1981902D01*
X-1870187Y-2033905D01*
X-1931930Y-2065184D01*
X-1998536Y-2074592D01*
X-2065558Y-2060980D01*
X-2086792Y-2051354D01*
X-2137624Y-2024859D01*
X-2137624Y-2440052D01*
X-2100525Y-2420868D01*
X-2051643Y-2406025D01*
X-1991561Y-2402222D01*
X-1931564Y-2409243D01*
X-1886256Y-2425013D01*
X-1848675Y-2455047D01*
X-1816564Y-2498024D01*
X-1814150Y-2502436D01*
X-1803967Y-2523221D01*
X-1796530Y-2544170D01*
X-1791411Y-2569548D01*
X-1788181Y-2603618D01*
X-1786413Y-2650641D01*
X-1785677Y-2714882D01*
X-1785544Y-2787176D01*
X-1785544Y-3017822D01*
X-1923861Y-3017822D01*
X-1923861Y-2592533D01*
X-1962549Y-2559979D01*
X-2002738Y-2533940D01*
X-2040797Y-2529205D01*
X-2079066Y-2541389D01*
X-2099462Y-2553320D01*
X-2114642Y-2570313D01*
X-2125438Y-2595995D01*
X-2132683Y-2633991D01*
X-2137208Y-2687926D01*
X-2139844Y-2761425D01*
X-2140772Y-2810347D01*
X-2143911Y-3011535D01*
X-2209926Y-3015336D01*
X-2275940Y-3019136D01*
X-2275940Y-1770650D01*
X-2137624Y-1770650D01*
X-2134097Y-1840254D01*
X-2122215Y-1888569D01*
X-2100020Y-1918631D01*
X-2065559Y-1933471D01*
X-2030742Y-1936436D01*
X-1991329Y-1933028D01*
X-1965171Y-1919617D01*
X-1948814Y-1901896D01*
X-1935937Y-1882835D01*
X-1928272Y-1861601D01*
X-1924861Y-1831849D01*
X-1924749Y-1787236D01*
X-1925897Y-1749880D01*
X-1928532Y-1693604D01*
X-1932456Y-1656658D01*
X-1939063Y-1633223D01*
X-1949749Y-1617480D01*
X-1959833Y-1608380D01*
X-2001970Y-1588537D01*
X-2051840Y-1585332D01*
X-2080476Y-1592168D01*
X-2108828Y-1616464D01*
X-2127609Y-1663728D01*
X-2136712Y-1733624D01*
X-2137624Y-1770650D01*
X-2275940Y-1770650D01*
X-2275940Y-1458614D01*
X-2206782Y-1458614D01*
X-2165260Y-1460256D01*
X-2143838Y-1466087D01*
X-2137626Y-1477461D01*
X-2137624Y-1477798D01*
X-2134742Y-1488938D01*
X-2122030Y-1487673D01*
X-2096757Y-1475433D01*
X-2037869Y-1456707D01*
X-1971615Y-1454739D01*
X-1908759Y-1469184D01*
G37*
X-1908759Y-1469184D02*
X-1882247Y-1482282D01*
X-1849553Y-1505106D01*
X-1825725Y-1529996D01*
X-1809406Y-1561249D01*
X-1799240Y-1603166D01*
X-1793872Y-1660044D01*
X-1791944Y-1736184D01*
X-1791831Y-1768917D01*
X-1792161Y-1840656D01*
X-1793527Y-1891927D01*
X-1796500Y-1927404D01*
X-1801649Y-1951763D01*
X-1809543Y-1969680D01*
X-1817757Y-1981902D01*
X-1870187Y-2033905D01*
X-1931930Y-2065184D01*
X-1998536Y-2074592D01*
X-2065558Y-2060980D01*
X-2086792Y-2051354D01*
X-2137624Y-2024859D01*
X-2137624Y-2440052D01*
X-2100525Y-2420868D01*
X-2051643Y-2406025D01*
X-1991561Y-2402222D01*
X-1931564Y-2409243D01*
X-1886256Y-2425013D01*
X-1848675Y-2455047D01*
X-1816564Y-2498024D01*
X-1814150Y-2502436D01*
X-1803967Y-2523221D01*
X-1796530Y-2544170D01*
X-1791411Y-2569548D01*
X-1788181Y-2603618D01*
X-1786413Y-2650641D01*
X-1785677Y-2714882D01*
X-1785544Y-2787176D01*
X-1785544Y-3017822D01*
X-1923861Y-3017822D01*
X-1923861Y-2592533D01*
X-1962549Y-2559979D01*
X-2002738Y-2533940D01*
X-2040797Y-2529205D01*
X-2079066Y-2541389D01*
X-2099462Y-2553320D01*
X-2114642Y-2570313D01*
X-2125438Y-2595995D01*
X-2132683Y-2633991D01*
X-2137208Y-2687926D01*
X-2139844Y-2761425D01*
X-2140772Y-2810347D01*
X-2143911Y-3011535D01*
X-2209926Y-3015336D01*
X-2275940Y-3019136D01*
X-2275940Y-1770650D01*
X-2137624Y-1770650D01*
X-2134097Y-1840254D01*
X-2122215Y-1888569D01*
X-2100020Y-1918631D01*
X-2065559Y-1933471D01*
X-2030742Y-1936436D01*
X-1991329Y-1933028D01*
X-1965171Y-1919617D01*
X-1948814Y-1901896D01*
X-1935937Y-1882835D01*
X-1928272Y-1861601D01*
X-1924861Y-1831849D01*
X-1924749Y-1787236D01*
X-1925897Y-1749880D01*
X-1928532Y-1693604D01*
X-1932456Y-1656658D01*
X-1939063Y-1633223D01*
X-1949749Y-1617480D01*
X-1959833Y-1608380D01*
X-2001970Y-1588537D01*
X-2051840Y-1585332D01*
X-2080476Y-1592168D01*
X-2108828Y-1616464D01*
X-2127609Y-1663728D01*
X-2136712Y-1733624D01*
X-2137624Y-1770650D01*
X-2275940Y-1770650D01*
X-2275940Y-1458614D01*
X-2206782Y-1458614D01*
X-2165260Y-1460256D01*
X-2143838Y-1466087D01*
X-2137626Y-1477461D01*
X-2137624Y-1477798D01*
X-2134742Y-1488938D01*
X-2122030Y-1487673D01*
X-2096757Y-1475433D01*
X-2037869Y-1456707D01*
X-1971615Y-1454739D01*
X-1908759Y-1469184D01*
D11*
%TO.C,3V3*%
X164430400Y-91862600D02*
X165760400Y-91862600D01*
X164430400Y-93192600D02*
X164430400Y-91862600D01*
X164430400Y-94462600D02*
X167090400Y-94462600D01*
X167090400Y-94462600D02*
X167090400Y-104682600D01*
X164430400Y-94462600D02*
X164430400Y-104682600D01*
X164430400Y-104682600D02*
X167090400Y-104682600D01*
%TO.C,5V1*%
X154880000Y-104755001D02*
X157540000Y-104755001D01*
X154880000Y-94535001D02*
X154880000Y-104755001D01*
X157540000Y-94535001D02*
X157540000Y-104755001D01*
X154880000Y-94535001D02*
X157540000Y-94535001D01*
X154880000Y-93265001D02*
X154880000Y-91935001D01*
X154880000Y-91935001D02*
X156210000Y-91935001D01*
%TO.C,GND1*%
X173930000Y-104835000D02*
X176590000Y-104835000D01*
X173930000Y-94615000D02*
X173930000Y-104835000D01*
X176590000Y-94615000D02*
X176590000Y-104835000D01*
X173930000Y-94615000D02*
X176590000Y-94615000D01*
X173930000Y-93345000D02*
X173930000Y-92015000D01*
X173930000Y-92015000D02*
X175260000Y-92015000D01*
%TO.C,SCL1*%
X158690000Y-104755001D02*
X161350000Y-104755001D01*
X158690000Y-94535001D02*
X158690000Y-104755001D01*
X161350000Y-94535001D02*
X161350000Y-104755001D01*
X158690000Y-94535001D02*
X161350000Y-94535001D01*
X158690000Y-93265001D02*
X158690000Y-91935001D01*
X158690000Y-91935001D02*
X160020000Y-91935001D01*
%TO.C,SDA1*%
X170120000Y-91935001D02*
X171450000Y-91935001D01*
X170120000Y-93265001D02*
X170120000Y-91935001D01*
X170120000Y-94535001D02*
X172780000Y-94535001D01*
X172780000Y-94535001D02*
X172780000Y-104755001D01*
X170120000Y-94535001D02*
X170120000Y-104755001D01*
X170120000Y-104755001D02*
X172780000Y-104755001D01*
%TO.C,3V3*%
D12*
X164522304Y-90314980D02*
X165141352Y-90314980D01*
X164808019Y-90695933D01*
X164950876Y-90695933D01*
X165046114Y-90743552D01*
X165093733Y-90791171D01*
X165141352Y-90886409D01*
X165141352Y-91124504D01*
X165093733Y-91219742D01*
X165046114Y-91267361D01*
X164950876Y-91314980D01*
X164665161Y-91314980D01*
X164569923Y-91267361D01*
X164522304Y-91219742D01*
X165427066Y-90314980D02*
X165760400Y-91314980D01*
X166093733Y-90314980D01*
X166331828Y-90314980D02*
X166950876Y-90314980D01*
X166617542Y-90695933D01*
X166760400Y-90695933D01*
X166855638Y-90743552D01*
X166903257Y-90791171D01*
X166950876Y-90886409D01*
X166950876Y-91124504D01*
X166903257Y-91219742D01*
X166855638Y-91267361D01*
X166760400Y-91314980D01*
X166474685Y-91314980D01*
X166379447Y-91267361D01*
X166331828Y-91219742D01*
%TO.C,5V1*%
X155543333Y-90387381D02*
X155067142Y-90387381D01*
X155019523Y-90863572D01*
X155067142Y-90815953D01*
X155162380Y-90768334D01*
X155400476Y-90768334D01*
X155495714Y-90815953D01*
X155543333Y-90863572D01*
X155590952Y-90958810D01*
X155590952Y-91196905D01*
X155543333Y-91292143D01*
X155495714Y-91339762D01*
X155400476Y-91387381D01*
X155162380Y-91387381D01*
X155067142Y-91339762D01*
X155019523Y-91292143D01*
X155876666Y-90387381D02*
X156210000Y-91387381D01*
X156543333Y-90387381D01*
X157400476Y-91387381D02*
X156829047Y-91387381D01*
X157114761Y-91387381D02*
X157114761Y-90387381D01*
X157019523Y-90530239D01*
X156924285Y-90625477D01*
X156829047Y-90673096D01*
%TO.C,GND1*%
X174021904Y-90515000D02*
X173926666Y-90467380D01*
X173783809Y-90467380D01*
X173640952Y-90515000D01*
X173545714Y-90610238D01*
X173498095Y-90705476D01*
X173450476Y-90895952D01*
X173450476Y-91038809D01*
X173498095Y-91229285D01*
X173545714Y-91324523D01*
X173640952Y-91419761D01*
X173783809Y-91467380D01*
X173879047Y-91467380D01*
X174021904Y-91419761D01*
X174069523Y-91372142D01*
X174069523Y-91038809D01*
X173879047Y-91038809D01*
X174498095Y-91467380D02*
X174498095Y-90467380D01*
X175069523Y-91467380D01*
X175069523Y-90467380D01*
X175545714Y-91467380D02*
X175545714Y-90467380D01*
X175783809Y-90467380D01*
X175926666Y-90515000D01*
X176021904Y-90610238D01*
X176069523Y-90705476D01*
X176117142Y-90895952D01*
X176117142Y-91038809D01*
X176069523Y-91229285D01*
X176021904Y-91324523D01*
X175926666Y-91419761D01*
X175783809Y-91467380D01*
X175545714Y-91467380D01*
X177069523Y-91467380D02*
X176498095Y-91467380D01*
X176783809Y-91467380D02*
X176783809Y-90467380D01*
X176688571Y-90610238D01*
X176593333Y-90705476D01*
X176498095Y-90753095D01*
%TO.C,SCL1*%
X158353333Y-91339762D02*
X158496190Y-91387381D01*
X158734285Y-91387381D01*
X158829523Y-91339762D01*
X158877142Y-91292143D01*
X158924761Y-91196905D01*
X158924761Y-91101667D01*
X158877142Y-91006429D01*
X158829523Y-90958810D01*
X158734285Y-90911191D01*
X158543809Y-90863572D01*
X158448571Y-90815953D01*
X158400952Y-90768334D01*
X158353333Y-90673096D01*
X158353333Y-90577858D01*
X158400952Y-90482620D01*
X158448571Y-90435001D01*
X158543809Y-90387381D01*
X158781904Y-90387381D01*
X158924761Y-90435001D01*
X159924761Y-91292143D02*
X159877142Y-91339762D01*
X159734285Y-91387381D01*
X159639047Y-91387381D01*
X159496190Y-91339762D01*
X159400952Y-91244524D01*
X159353333Y-91149286D01*
X159305714Y-90958810D01*
X159305714Y-90815953D01*
X159353333Y-90625477D01*
X159400952Y-90530239D01*
X159496190Y-90435001D01*
X159639047Y-90387381D01*
X159734285Y-90387381D01*
X159877142Y-90435001D01*
X159924761Y-90482620D01*
X160829523Y-91387381D02*
X160353333Y-91387381D01*
X160353333Y-90387381D01*
X161686666Y-91387381D02*
X161115238Y-91387381D01*
X161400952Y-91387381D02*
X161400952Y-90387381D01*
X161305714Y-90530239D01*
X161210476Y-90625477D01*
X161115238Y-90673096D01*
%TO.C,SDA1*%
X169759523Y-91339762D02*
X169902380Y-91387381D01*
X170140476Y-91387381D01*
X170235714Y-91339762D01*
X170283333Y-91292143D01*
X170330952Y-91196905D01*
X170330952Y-91101667D01*
X170283333Y-91006429D01*
X170235714Y-90958810D01*
X170140476Y-90911191D01*
X169950000Y-90863572D01*
X169854761Y-90815953D01*
X169807142Y-90768334D01*
X169759523Y-90673096D01*
X169759523Y-90577858D01*
X169807142Y-90482620D01*
X169854761Y-90435001D01*
X169950000Y-90387381D01*
X170188095Y-90387381D01*
X170330952Y-90435001D01*
X170759523Y-91387381D02*
X170759523Y-90387381D01*
X170997619Y-90387381D01*
X171140476Y-90435001D01*
X171235714Y-90530239D01*
X171283333Y-90625477D01*
X171330952Y-90815953D01*
X171330952Y-90958810D01*
X171283333Y-91149286D01*
X171235714Y-91244524D01*
X171140476Y-91339762D01*
X170997619Y-91387381D01*
X170759523Y-91387381D01*
X171711904Y-91101667D02*
X172188095Y-91101667D01*
X171616666Y-91387381D02*
X171950000Y-90387381D01*
X172283333Y-91387381D01*
X173140476Y-91387381D02*
X172569047Y-91387381D01*
X172854761Y-91387381D02*
X172854761Y-90387381D01*
X172759523Y-90530239D01*
X172664285Y-90625477D01*
X172569047Y-90673096D01*
%TD*%
M02*
